<svg width="67" height="63" viewBox="0 0 67 63" fill="none" xmlns="http://www.w3.org/2000/svg">
<path d="M51.2353 0C45.6673 0 40.7642 2.72827 37.9588 6.83785C36.5293 4.94476 34.1812 3.70588 31.5294 3.70588H27.5882V0H23.6471V3.70588H19.7059C15.3596 3.70588 11.8235 7.0308 11.8235 11.1176V22.3588C11.8235 26.7571 14.1642 30.6502 17.7353 32.9968V37.0588H12.5679C5.63798 37.0588 0 42.3602 0 48.8765V63H51.2353V48.8765C51.2353 42.3602 45.5973 37.0588 38.6673 37.0588H33.5V32.9968C36.4999 31.0257 38.6309 27.9629 39.2359 24.426C42.1297 27.6186 46.4349 29.6471 51.2353 29.6471C59.928 29.6471 67 22.9973 67 14.8235C67 6.64971 59.928 0 51.2353 0ZM15.7647 11.1176C15.7647 9.07422 17.5327 7.41177 19.7059 7.41177H31.5294C33.7026 7.41177 35.4706 9.07422 35.4706 11.1176V12.9706H15.7647V11.1176ZM3.94118 48.8765C3.94118 44.4036 7.81115 40.7647 12.5679 40.7647H18.8897L23.6471 45.2381V59.2941H11.8235V51.8824H7.88235V59.2941H3.94118V48.8765ZM38.6673 40.7647C43.4241 40.7647 47.2941 44.4036 47.2941 48.8765V59.2941H43.3529V51.8824H39.4118V59.2941H27.5882V45.2381L32.3456 40.7647H38.6673ZM29.5588 38.1443L25.6176 41.85L21.6765 38.1443V34.7891C24.1807 35.4924 26.932 35.5268 29.5588 34.7891V38.1443ZM35.4706 22.3588C35.4706 27.4674 31.0506 31.6235 25.6176 31.6235C20.1847 31.6235 15.7647 27.4674 15.7647 22.3588V16.6765H35.4706V22.3588ZM51.2353 25.9412C44.7158 25.9412 39.4118 20.9538 39.4118 14.8235C39.4118 8.69326 44.7158 3.70588 51.2353 3.70588C57.7548 3.70588 63.0588 8.69326 63.0588 14.8235C63.0588 20.9538 57.7548 25.9412 51.2353 25.9412Z" fill="#030303"/>
<path d="M53.2059 7.41176H49.2647V16.6765H57.1471V12.9706H53.2059V7.41176Z" fill="#030303"/>
</svg>
