<svg width="63" height="72" viewBox="0 0 63 72" fill="none" xmlns="http://www.w3.org/2000/svg">
<path d="M52.5 46.5455H42V44.436C42 41.7997 40.3864 39.5356 38.0996 38.5857C38.8947 33.7928 40.1705 29.3036 44.2777 22.0673C45.5351 19.8518 46.1998 17.3258 46.1998 14.7625C46.1998 6.59545 39.5988 -0.0611697 31.3598 0.000424029C24.0463 0.0551272 18.3002 5.41547 17.0742 11.8749C16.3155 15.8715 17.1448 19.8807 19.4099 23.164C22.5163 27.6675 24.013 33.237 24.9004 38.5857C22.6136 39.5356 21 41.7997 21 44.436V46.5455H10.5C4.71032 46.5455 0 51.2771 0 57.0929V61.4526C0 62.6175 0.940188 63.5621 2.10002 63.5621H4.20005V65.6716C4.20005 69.1611 7.02621 72 10.5 72H52.4999C55.9736 72 58.8 69.1611 58.8 65.6716V63.5621H60.9C62.0597 63.5621 63 62.6176 63 61.4526V57.0929C63 51.2771 58.2897 46.5455 52.5 46.5455ZM22.8623 20.7613C21.2444 18.4158 20.654 15.5406 21.1999 12.6653C22.0552 8.15935 26.1725 4.15322 31.6399 4.21383C37.3964 4.27767 41.9999 9.01463 41.9999 14.7625C41.9999 16.5943 41.5259 18.3975 40.6291 19.9776C36.2427 27.7057 34.8355 32.5958 33.9208 38.1076H29.0788C28.0675 32.0086 26.406 25.8988 22.8623 20.7613ZM37.8 44.436V46.5455H25.2V44.436C25.2 43.2729 26.142 42.3264 27.3 42.3264H35.7C36.858 42.3266 37.8 43.2729 37.8 44.436ZM54.6 65.6716C54.6 66.8347 53.658 67.7811 52.5 67.7811H10.5001C9.34224 67.7811 8.40009 66.8348 8.40009 65.6716V63.5621H54.6V65.6716ZM58.8001 59.3431C56.3785 59.3431 8.6427 59.3431 4.20019 59.3431V57.0929C4.20019 53.6034 7.02635 50.7645 10.5001 50.7645C11.5277 50.7645 47.6571 50.7645 52.5 50.7645C55.9738 50.7645 58.8001 53.6034 58.8001 57.0929V59.3431Z" fill="#030303"/>
</svg>
