<svg width="76" height="72" viewBox="0 0 76 72" fill="none" xmlns="http://www.w3.org/2000/svg">
<path d="M74.5202 18.0487L39.1963 0.284337C38.4432 -0.0947789 37.5563 -0.0947789 36.8029 0.284337L1.4793 18.0487C0.572683 18.5048 0 19.4365 0 20.4562V69.3084C0 70.7947 1.19808 72 2.6761 72H11.5071C12.9849 72 14.1832 70.795 14.1832 69.3084V27.5889H61.8167V69.3084C61.8167 70.7947 63.0148 72 64.4929 72H73.3239C74.8017 72 76 70.795 76 69.3084V20.4562C75.9995 19.4365 75.4268 18.5048 74.5202 18.0487ZM70.6475 66.6167H67.1687V24.8973C67.1687 23.4109 65.9706 22.2056 64.4926 22.2056H11.5069C10.0291 22.2056 8.83078 23.4107 8.83078 24.8973V66.6167H5.35195V22.1197L37.9997 5.70108L70.6475 22.1197V66.6167Z" fill="#030303"/>
<path d="M55.6616 31.8953H37.9997C36.9652 31.8953 36.1266 32.7388 36.1266 33.7793V49.6597H20.3379C19.3034 49.6597 18.4648 50.5031 18.4648 51.5437V69.3081C18.4648 70.3487 19.3034 71.1921 20.3379 71.1921H55.6616C56.6961 71.1921 57.5347 70.3487 57.5347 69.3081V33.7796C57.5349 32.7388 56.6961 31.8953 55.6616 31.8953ZM39.8729 56.0928L44.1813 60.4263L39.8729 64.7597V56.0928ZM36.1266 64.7595L31.8182 60.426L36.1266 56.0926V64.7595ZM42.5224 53.428H51.139L46.8305 57.7614L42.5224 53.428ZM42.5224 49.6597L46.8308 45.3263L51.1392 49.6597H42.5224ZM53.7884 46.9951L49.4803 42.6616L53.7884 38.3282V46.9951ZM46.8308 39.997L42.5224 35.6636H51.139L46.8308 39.997ZM44.1813 42.6616L39.8729 46.9951V38.3285L44.1813 42.6616ZM29.1687 57.7614L24.8603 53.428H33.4769L29.1687 57.7614ZM26.5195 60.426L22.211 64.7595V56.0928L26.5195 60.426ZM29.1687 63.0909L33.4771 67.4244H24.8605L29.1687 63.0909ZM46.8305 63.0909L51.139 67.4244H42.5224L46.8305 63.0909ZM49.48 60.426L53.7884 56.0926V64.7592L49.48 60.426Z" fill="#030303"/>
</svg>
