<svg width="89" height="63" viewBox="0 0 89 63" fill="none" xmlns="http://www.w3.org/2000/svg">
<path d="M67.2174 40.0908C61.0314 40.0908 55.9989 45.2292 55.9989 51.5454C55.9989 57.8616 61.0314 63 67.2174 63C73.4045 63 78.4359 57.8616 78.4359 51.5454C78.4359 45.2292 73.4034 40.0908 67.2174 40.0908ZM67.2174 57.2727C64.124 57.2727 61.6082 54.704 61.6082 51.5454C61.6082 48.3869 64.124 45.8181 67.2174 45.8181C70.3109 45.8181 72.8267 48.3869 72.8267 51.5454C72.8267 54.7041 70.3109 57.2727 67.2174 57.2727Z" fill="#030303"/>
<path d="M28.8876 40.0908C22.7016 40.0908 17.6691 45.2292 17.6691 51.5454C17.6691 57.8616 22.7016 63 28.8876 63C35.0736 63 40.1061 57.8616 40.1061 51.5454C40.1061 45.2292 35.0736 40.0908 28.8876 40.0908ZM28.8876 57.2727C25.7942 57.2727 23.2784 54.704 23.2784 51.5454C23.2784 48.3869 25.7942 45.8181 28.8876 45.8181C31.9802 45.8181 34.4969 48.3869 34.4969 51.5454C34.4969 54.7041 31.9811 57.2727 28.8876 57.2727Z" fill="#030303"/>
<path d="M74.7722 7.30425C74.2954 6.33731 73.3259 5.72729 72.2657 5.72729H57.4947V11.4546H70.5361L78.1731 26.964L83.186 24.3904L74.7722 7.30425Z" fill="#030303"/>
<path d="M58.8036 48.7774H37.582V54.5046H58.8036V48.7774Z" fill="#030303"/>
<path d="M20.4736 48.7774H10.7511C9.20194 48.7774 7.94655 50.0593 7.94655 51.6409C7.94655 53.2227 9.20211 54.5045 10.7511 54.5045H20.4738C22.023 54.5045 23.2784 53.2225 23.2784 51.6409C23.2784 50.0592 22.0228 48.7774 20.4736 48.7774Z" fill="#030303"/>
<path d="M88.4111 31.2709L82.8945 24.0163C82.3645 23.3175 81.5464 22.909 80.6797 22.909H60.2994V2.86355C60.2994 1.2818 59.0438 0 57.4949 0H10.7511C9.20194 0 7.94655 1.28198 7.94655 2.86355C7.94655 4.44513 9.20211 5.72711 10.7511 5.72711H54.6902V25.7725C54.6902 27.3543 55.9457 28.6361 57.4947 28.6361H79.3063L83.3907 34.0082V48.777H75.6312C74.0821 48.777 72.8267 50.059 72.8267 51.6406C72.8267 53.2223 74.0822 54.5041 75.6312 54.5041H86.1953C87.7444 54.5041 88.9998 53.2221 89 51.6406V33.0273C89 32.3915 88.7924 31.773 88.4111 31.2709Z" fill="#030303"/>
<path d="M20.2868 34.2682H7.38544C5.83628 34.2682 4.58089 35.5502 4.58089 37.1318C4.58089 38.7136 5.83645 39.9954 7.38544 39.9954H20.2866C21.8358 39.9954 23.0912 38.7134 23.0912 37.1318C23.0913 35.5502 21.8358 34.2682 20.2868 34.2682Z" fill="#030303"/>
<path d="M26.7374 23.0045H2.80454C1.25556 23.0045 0 24.2864 0 25.8682C0 27.4499 1.25556 28.7318 2.80454 28.7318H26.7374C28.2865 28.7318 29.5419 27.4498 29.5419 25.8682C29.5419 24.2866 28.2865 23.0045 26.7374 23.0045Z" fill="#030303"/>
<path d="M31.3183 11.7409H7.38544C5.83628 11.7409 4.58089 13.0228 4.58089 14.6044C4.58089 16.1862 5.83645 17.468 7.38544 17.468H31.3183C32.8674 17.468 34.1228 16.186 34.1228 14.6044C34.123 13.0228 32.8674 11.7409 31.3183 11.7409Z" fill="#030303"/>
</svg>
