<svg width="26" height="27" viewBox="0 0 26 27" fill="none" xmlns="http://www.w3.org/2000/svg">
<path d="M1 1H5.36364L8.28727 16.9405C8.38703 17.4886 8.66026 17.9809 9.05914 18.3313C9.45802 18.6817 9.95713 18.8678 10.4691 18.8571H21.0727C21.5847 18.8678 22.0838 18.6817 22.4827 18.3313C22.8816 17.9809 23.1548 17.4886 23.2545 16.9405L25 6.95238H6.45455M10.8182 24.8095C10.8182 25.467 10.3298 26 9.72727 26C9.12478 26 8.63636 25.467 8.63636 24.8095C8.63636 24.152 9.12478 23.619 9.72727 23.619C10.3298 23.619 10.8182 24.152 10.8182 24.8095ZM22.8182 24.8095C22.8182 25.467 22.3298 26 21.7273 26C21.1248 26 20.6364 25.467 20.6364 24.8095C20.6364 24.152 21.1248 23.619 21.7273 23.619C22.3298 23.619 22.8182 24.152 22.8182 24.8095Z" stroke="white" stroke-width="2" stroke-linecap="round" stroke-linejoin="round"/>
</svg>
