<svg width="75" height="75" viewBox="0 0 75 75" fill="none" xmlns="http://www.w3.org/2000/svg">
<path d="M70.7411 31.9532C69.5835 31.1021 68.1455 30.039 67.9562 29.3347C67.7508 28.565 68.4845 26.8694 69.078 25.5097C70.0922 23.1748 71.1421 20.7585 69.978 18.7433C68.8009 16.702 66.1562 16.4053 63.603 16.1184C62.1454 15.9553 60.3324 15.7532 59.791 15.2086C59.2464 14.6673 59.0443 12.8542 58.8812 11.3966C58.5943 8.84332 58.2975 6.20202 56.2563 5.02153C54.4824 3.99115 51.8541 4.89115 49.4899 5.92153C48.1823 6.48892 46.8193 7.03018 45.6617 7.04332C44.9574 6.85745 43.8977 5.4162 43.0432 4.25849C41.5728 2.26299 39.9064 0 37.4998 0C35.0965 0 33.4271 2.26299 31.9563 4.25543C31.102 5.41299 30.0422 6.85439 29.0443 7.07603C28.1671 7.07603 26.8171 6.48908 25.5096 5.92168C23.139 4.8913 20.5075 4.00108 18.7466 5.02169C16.7021 6.20217 16.4054 8.84347 16.1183 11.3967C15.9586 12.8543 15.7532 14.6641 15.2118 15.2087C14.6671 15.7534 12.8542 15.9554 11.3998 16.1185C8.8433 16.4054 6.19864 16.7055 5.02152 18.7435C3.85739 20.7555 4.90734 23.1718 5.92152 25.5098C6.51505 26.8696 7.25195 28.5652 7.04652 29.3348C6.85744 30.0392 5.41603 31.1023 4.26169 31.9533C2.26299 33.4239 0 35.0934 0 37.4999C0 39.9064 2.26299 41.5761 4.25863 43.0467C5.41619 43.8977 6.85423 44.9608 7.04346 45.6652C7.24889 46.4348 6.5152 48.1304 5.92167 49.4902C4.90749 51.825 3.85755 54.2413 5.02167 56.2565C6.19879 58.2979 8.84345 58.5946 11.3967 58.8815C12.8543 59.0446 14.6673 59.2466 15.2087 59.7913C15.7533 60.3325 15.9554 62.1457 16.1185 63.6033C16.4054 66.1565 16.7022 68.7978 18.7434 69.9783C20.5109 71.0055 23.139 70.1087 25.5098 69.0783C26.8174 68.5109 28.1543 67.937 29.338 67.9565C30.0423 68.1424 31.102 69.5836 31.9565 70.7414C33.4271 72.737 35.0935 75 37.5 75C39.9033 75 41.5728 72.737 43.0402 70.7446C43.8944 69.587 44.9543 68.1456 45.9522 67.924C46.8326 67.924 48.1826 68.5109 49.4869 69.0783C51.8608 70.1121 54.489 71.0023 56.2498 69.9815C58.2944 68.801 58.5911 66.1597 58.8782 63.6033C59.0379 62.1457 59.2433 60.3359 59.7847 59.7913C60.3293 59.2466 62.1423 59.0446 63.5967 58.8815C66.1532 58.5946 68.7978 58.2945 69.975 56.2565C71.1423 54.2445 70.0924 51.8282 69.075 49.4902C68.4814 48.1304 67.7477 46.438 67.9532 45.6652C68.1423 44.9608 69.5837 43.8977 70.738 43.0467C72.7369 41.5761 75 39.9064 75 37.4999C75 35.0934 72.7367 33.4239 70.7411 31.9532ZM68.8107 40.4151C67.0792 41.6901 65.289 43.0075 64.8064 44.8141C64.3075 46.6858 65.2141 48.7695 66.0911 50.7847C66.6519 52.076 67.4998 54.026 67.1606 54.6163C66.8053 55.2326 64.6629 55.4739 63.241 55.6337C61.0759 55.8782 58.8357 56.1294 57.4857 57.4794C56.1357 58.8294 55.8845 61.0696 55.6433 63.2347C55.4836 64.6532 55.2422 66.7988 54.6227 67.1544C54.5281 67.2098 54.3716 67.2228 54.2576 67.2228C53.4097 67.2228 52.0793 66.6425 50.7913 66.0848C48.7695 65.2076 46.5587 64.3338 44.8239 64.8033C43.0142 65.2859 41.6967 67.0761 40.4186 68.8076C39.5577 69.975 38.2566 71.7392 37.5002 71.7392C36.7437 71.7392 35.4392 69.9751 34.5817 68.8076C33.3068 67.0793 31.9893 65.2891 30.1796 64.8065C29.8242 64.7119 29.4427 64.663 29.0416 64.663C27.4862 64.663 25.8199 65.3869 24.209 66.0913C22.9243 66.6489 21.5938 67.2293 20.7427 67.2293C20.6286 67.2293 20.472 67.2163 20.3776 67.1608C19.7581 66.802 19.5199 64.6596 19.3602 63.2412C19.1156 61.076 18.8645 58.8358 17.5145 57.4858C16.1677 56.1358 13.9243 55.8846 11.7591 55.6401C10.3439 55.4803 8.19826 55.239 7.84288 54.6227C7.50049 54.0357 8.35157 52.0824 8.91239 50.7911C9.78961 48.7759 10.696 46.6922 10.1971 44.8205C9.7112 43.014 7.92099 41.6967 6.19283 40.4216C5.0255 39.5575 3.26127 38.2564 3.26127 37.4998C3.26127 36.7431 5.02534 35.4422 6.19283 34.578C7.92435 33.303 9.71456 31.9856 10.1971 30.179C10.696 28.3073 9.78946 26.2236 8.91239 24.2084C8.35478 22.9171 7.5037 20.9672 7.84288 20.3769C8.20163 19.7606 10.344 19.5192 11.7625 19.3627C13.9276 19.1181 16.1679 18.867 17.5179 17.517C18.8679 16.167 19.119 13.9268 19.3636 11.7616C19.5201 10.3431 19.7614 8.20072 20.3809 7.84198C20.4756 7.78649 20.6321 7.7735 20.7461 7.7735C21.594 7.7735 22.9244 8.35388 24.2091 8.91486C26.2309 9.79208 28.4384 10.6692 30.1765 10.1964C31.9863 9.71382 33.3037 7.9236 34.5819 6.19208C35.4428 5.02474 36.7438 3.26051 37.5003 3.26051C38.2568 3.26051 39.5612 5.02459 40.4221 6.18872C41.697 7.91703 43.0145 9.70725 44.8242 10.1898C46.546 10.6496 48.7698 9.78872 50.7916 8.90828C52.0764 8.35067 53.4068 7.77029 54.2579 7.77029C54.372 7.77029 54.5286 7.78328 54.623 7.83877C55.2425 8.19751 55.4807 10.3399 55.6404 11.7584C55.885 13.9235 56.1361 16.1638 57.4861 17.5138C58.8329 18.8638 61.0763 19.1149 63.2415 19.3595C64.6568 19.5192 66.8024 19.7606 67.1577 20.3769C67.5001 20.9638 66.649 22.9171 66.0882 24.2084C65.211 26.2236 64.3046 28.3073 64.8035 30.179C65.2894 31.9856 67.0796 33.3029 68.8078 34.578C69.9751 35.4421 71.7393 36.7431 71.7393 37.4998C71.7393 38.2564 69.9748 39.5576 68.8107 40.4151Z" fill="#F7941D"/>
<path d="M26.7832 30.1885C26.7832 28.7661 27.2449 27.6144 28.1684 26.7333C29.0919 25.8417 30.302 25.3959 31.7987 25.3959C33.3166 25.3959 34.5373 25.8364 35.4608 26.7174C36.3843 27.5878 36.846 28.7714 36.846 30.2681V31.4145C36.846 32.8475 36.3843 33.9992 35.4608 34.8696C34.5373 35.74 33.3272 36.1752 31.8305 36.1752C30.3232 36.1752 29.1025 35.74 28.1684 34.8696C27.2449 33.9886 26.7832 32.805 26.7832 31.3189V30.1885ZM29.8403 31.4145C29.8403 32.0514 30.0207 32.5662 30.3816 32.9589C30.7531 33.3411 31.2361 33.5321 31.8305 33.5321C32.425 33.5321 32.8973 33.3358 33.2476 32.943C33.5979 32.5503 33.7731 32.0248 33.7731 31.3667V30.1885C33.7731 29.5516 33.5979 29.0368 33.2476 28.644C32.8973 28.2513 32.4144 28.0549 31.7987 28.0549C31.2149 28.0549 30.7425 28.2513 30.3816 28.644C30.0207 29.0261 29.8403 29.5622 29.8403 30.2521V31.4145ZM37.8651 43.2288C37.8651 41.7958 38.3321 40.644 39.2662 39.7736C40.2003 38.8926 41.4104 38.4521 42.8965 38.4521C44.4038 38.4521 45.6192 38.8873 46.5427 39.7577C47.4768 40.6175 47.9438 41.8064 47.9438 43.3243V44.4707C47.9438 45.8931 47.4874 47.0448 46.5745 47.9258C45.6616 48.7962 44.4462 49.2314 42.9283 49.2314C41.3998 49.2314 40.1738 48.7909 39.2503 47.9099C38.3268 47.0289 37.8651 45.8612 37.8651 44.407V43.2288ZM40.9221 44.4707C40.9221 45.0545 41.1132 45.5534 41.4953 45.9674C41.8775 46.3814 42.3551 46.5883 42.9283 46.5883C44.2233 46.5883 44.8708 45.8718 44.8708 44.4388V43.2288C44.8708 42.5919 44.6904 42.0824 44.3295 41.7002C43.9686 41.3075 43.4909 41.1111 42.8965 41.1111C42.3021 41.1111 41.8244 41.3075 41.4635 41.7002C41.1026 42.0824 40.9221 42.6078 40.9221 43.2765V44.4707ZM32.7381 47.1775L30.4931 45.9674L41.8138 27.8479L44.0588 29.058L32.7381 47.1775Z" fill="#F7941D"/>
</svg>
