<svg width="56" height="73" viewBox="0 0 56 73" fill="none" xmlns="http://www.w3.org/2000/svg">
<path d="M24 12C24 18.6274 18.6274 24 12 24C5.37258 24 0 18.6274 0 12C0 5.37258 5.37258 0 12 0C18.6274 0 24 5.37258 24 12ZM2.64952 12C2.64952 17.1641 6.83587 21.3505 12 21.3505C17.1641 21.3505 21.3505 17.1641 21.3505 12C21.3505 6.83587 17.1641 2.64952 12 2.64952C6.83587 2.64952 2.64952 6.83587 2.64952 12Z" fill="#F7941D"/>
<path d="M24 36C24 42.6274 18.6274 48 12 48C5.37258 48 0 42.6274 0 36C0 29.3726 5.37258 24 12 24C18.6274 24 24 29.3726 24 36ZM2.27664 36C2.27664 41.3701 6.62994 45.7234 12 45.7234C17.3701 45.7234 21.7234 41.3701 21.7234 36C21.7234 30.6299 17.3701 26.2766 12 26.2766C6.62994 26.2766 2.27664 30.6299 2.27664 36Z" fill="#F7941D"/>
<circle cx="12" cy="60" r="12" fill="#F7941D"/>
<path d="M47.2929 72.7071C47.6834 73.0976 48.3166 73.0976 48.7071 72.7071L55.0711 66.3431C55.4616 65.9526 55.4616 65.3195 55.0711 64.9289C54.6805 64.5384 54.0474 64.5384 53.6569 64.9289L48 70.5858L42.3431 64.9289C41.9526 64.5384 41.3195 64.5384 40.9289 64.9289C40.5384 65.3195 40.5384 65.9526 40.9289 66.3431L47.2929 72.7071ZM47 24L47 72L49 72L49 24L47 24Z" fill="#F7941D"/>
</svg>
