<svg width="55" height="61" viewBox="0 0 55 61" fill="none" xmlns="http://www.w3.org/2000/svg">
<path d="M54.2114 28.9403L51.7557 27.8964V26.2365C51.7902 16.0488 45.2879 6.95918 35.5598 3.59724V1.2579C35.5598 0.56352 34.9898 0 34.2878 0H20.6743C19.9723 0 19.4023 0.56352 19.4023 1.2579V3.6096C9.67418 6.97154 3.17183 16.0612 3.20633 26.2489V27.9215L0.776142 28.9403C0.305282 29.1368 0 29.5933 0 30.0976V36.7009C0 37.3948 0.570033 37.9583 1.27244 37.9583H2.92649V40.4741C2.92649 41.1681 3.49609 41.7316 4.1985 41.7316H8.76609C9.19987 43.3062 9.83717 44.8208 10.6616 46.2342L7.43026 49.4291C6.93655 49.9193 6.93655 50.7117 7.43026 51.2023L12.8374 56.5477C13.3333 57.0358 14.1348 57.0358 14.6311 56.5477L17.8625 53.3533C19.2888 54.1683 20.8157 54.797 22.4046 55.2271V59.7425C22.4046 60.4365 22.9747 61 23.6771 61H31.3104C32.0128 61 32.5829 60.4365 32.5829 59.7425V55.2271C34.1757 54.7983 35.7073 54.1696 37.1375 53.3533L40.3693 56.5477C40.8652 57.0358 41.6667 57.0358 42.163 56.5477L47.5702 51.2023C48.0639 50.7117 48.0639 49.9193 47.5702 49.4291L44.3384 46.2342C45.1628 44.8208 45.8006 43.3062 46.2343 41.7316H50.8015C51.5039 41.7316 52.0739 41.1681 52.0739 40.4741V37.9583H53.728C54.4304 37.9583 55 37.3948 55 36.7009V30.0976C54.9974 29.5895 54.6861 29.133 54.2114 28.9403ZM21.9213 2.52817H33.0154V23.5447H21.9467L21.9213 2.52817ZM49.542 39.2162H45.3056C44.695 39.2022 44.1616 39.6199 44.0331 40.2094C43.6045 42.1792 42.8159 44.0543 41.7051 45.7436C41.3778 46.2406 41.4481 46.8958 41.8703 47.3157L44.911 50.3217L41.2722 53.8938L38.2315 50.8878C37.8067 50.4704 37.144 50.401 36.6412 50.7245C34.9324 51.8221 33.0356 52.6022 31.0431 53.0259C30.4463 53.1529 30.0242 53.6802 30.038 54.2838V58.5221H24.9491V54.2459C24.9633 53.6423 24.5407 53.1154 23.944 52.9884C21.9519 52.5655 20.0546 51.7859 18.3463 50.6866C17.8435 50.3635 17.1808 50.4325 16.7556 50.8502L13.7149 53.8563L10.1144 50.2965L13.1552 47.2905C13.5777 46.8706 13.6476 46.2155 13.3208 45.7185C12.1997 44.0394 11.3981 42.1728 10.9544 40.2094C10.8255 39.6199 10.2925 39.2022 9.68194 39.2162H5.4455V37.9583H17.0738C17.7711 43.6409 22.9962 47.6882 28.7444 46.9977C33.5332 46.4231 37.3078 42.6924 37.8882 37.9583H49.5295L49.542 39.2162ZM35.3308 37.9583C34.631 42.2372 30.5545 45.1451 26.2267 44.4533C22.85 43.9137 20.2025 41.2964 19.6567 37.9583H35.3308ZM52.4685 35.443H2.53195V30.9275L4.98714 29.8836C5.458 29.6875 5.76328 29.231 5.76328 28.7263V26.2109C5.73526 17.4269 11.145 9.52102 19.4023 6.27588V24.8026C19.4023 25.4965 19.9719 26.06 20.6743 26.06H34.3128C35.0152 26.06 35.5852 25.4965 35.5852 24.8026V6.27588C43.8563 9.51974 49.2725 17.441 49.2367 26.2361V28.7519C49.2367 29.2562 49.542 29.7127 50.0129 29.9088L52.4681 30.9527L52.4685 35.443Z" fill="#F7941D"/>
</svg>
