<svg width="65" height="66" viewBox="0 0 65 66" fill="none" xmlns="http://www.w3.org/2000/svg">
<path d="M61.6879 27.0947L56.9268 31.8884V16.2568L63.206 9.93474C65 8.12842 65 5.21053 63.206 3.47368L61.7569 2.01474C59.9628 0.208421 57.0648 0.208421 55.2707 2.01474C40.8493 16.5347 45.8174 11.5326 44.7134 12.5747H14.2144V1.25053C14.2144 0.55579 13.6624 0.0694737 13.0414 0H7.45223C3.3811 0 0 3.33474 0 7.50316V48.84C0 52.9389 3.3121 56.3432 7.45223 56.3432H32.638L26.3588 62.6653C25.1168 63.9158 26.0138 66 27.7389 66H63.758C64.448 66 64.931 65.4442 65 64.8189V28.4842C65 26.7474 62.9299 25.8442 61.6879 27.0947ZM39.6762 30.0821C38.8482 29.8042 38.2962 29.04 38.1582 28.1368C38.0892 27.5811 37.6752 27.1642 37.1231 27.0947C36.2951 27.0253 35.5361 26.4695 35.2601 25.5663L52.5796 8.12842C52.6486 8.1979 57.3408 12.9221 57.0648 12.6442C33.259 36.5432 41.4703 28.3453 39.6762 30.0821ZM36.9851 31.1242L32.983 32.3747L34.2251 28.3453C34.2941 28.4147 34.9151 29.04 36.0191 29.3874C36.1571 30.0126 36.5711 30.6379 36.9851 31.1242ZM57.0648 3.68211C57.8928 2.84842 59.2728 2.84842 60.1009 3.68211L61.5499 5.14105C62.3779 5.97474 62.3779 7.36421 61.5499 8.1979L58.7898 10.9768C58.7208 10.9074 54.0287 6.18316 54.3047 6.46105L57.0648 3.68211ZM6.76221 2.50105H11.7994V41.3368H7.45223C5.58917 41.3368 3.79512 42.0316 2.41507 43.2821V7.50316C2.41507 4.93263 4.27813 2.84842 6.76221 2.50105ZM7.45223 53.8421C4.69214 53.8421 2.41507 51.5495 2.41507 48.7705C2.41507 45.9916 4.69214 43.6989 7.45223 43.6989H13.0414C13.7314 43.6989 14.2834 43.1432 14.2834 42.4484V15.0063H42.3673L33.052 24.3158C32.983 24.3853 32.776 24.5937 32.707 24.8021C28.4289 38.6274 30.4989 31.8884 29.9469 33.8337C29.6709 34.7368 30.5679 35.64 31.465 35.3621L40.3662 32.5832C40.5042 32.5137 40.7113 32.4442 40.8493 32.3053L54.3737 18.6884V34.3895L35.1221 53.8421H7.45223ZM62.5849 63.5684H61.3429V61.9705C61.3429 61.2758 60.7909 60.72 60.1009 60.72C59.4108 60.72 58.8588 61.2758 58.8588 61.9705V63.5684H56.6507V62.8042C56.6507 62.1095 56.0987 61.5537 55.4087 61.5537C54.7187 61.5537 54.1667 62.1095 54.1667 62.8042V63.5684H51.9586V61.9705C51.9586 61.2758 51.4066 60.72 50.7166 60.72C50.0265 60.72 49.4745 61.2758 49.4745 61.9705V63.5684H47.4735V62.8042C47.4735 62.1095 46.9214 61.5537 46.2314 61.5537C45.5414 61.5537 44.9894 62.1095 44.9894 62.8042V63.5684H42.7813V61.9705C42.7813 61.2758 42.2293 60.72 41.5393 60.72C40.8493 60.72 40.2972 61.2758 40.2972 61.9705V63.5684H38.0892V62.8042C38.0892 62.1095 37.5372 61.5537 36.8471 61.5537C36.1571 61.5537 35.6051 62.1095 35.6051 62.8042V63.5684H33.397V61.9705C33.397 61.2758 32.845 60.72 32.155 60.72C31.465 60.72 30.913 61.2758 30.913 61.9705V63.5684H28.6359L62.3089 29.6653L62.5849 63.5684Z" fill="#F7941D"/>
<path d="M40.9871 57.3158C40.2281 58.08 40.7801 59.4 41.8151 59.4H57.2716C57.9616 59.4 58.4446 58.8442 58.5136 58.2189V42.5873C58.5136 41.4758 57.2026 40.9894 56.4436 41.7537L40.9871 57.3158ZM56.0296 56.9684H44.7132L56.0296 45.5747V56.9684Z" fill="#F7941D"/>
</svg>
