<svg width="77" height="30" viewBox="0 0 77 30" fill="none" xmlns="http://www.w3.org/2000/svg">
<path d="M19.1289 22.3789H8.11328L5.80859 29H0.671875L11.4141 0.5625H15.8477L26.6094 29H21.4531L19.1289 22.3789ZM9.5 18.3945H17.7422L13.6211 6.59766L9.5 18.3945ZM37.0664 29H32.1445V0.5625H37.0664V29ZM60.0039 21.6758C60.0039 20.4258 59.5612 19.4622 58.6758 18.7852C57.8034 18.1081 56.2214 17.4245 53.9297 16.7344C51.638 16.0443 49.8151 15.276 48.4609 14.4297C45.8698 12.8021 44.5742 10.6797 44.5742 8.0625C44.5742 5.77083 45.5052 3.88281 47.3672 2.39844C49.2422 0.914062 51.6706 0.171875 54.6523 0.171875C56.6315 0.171875 58.3958 0.536458 59.9453 1.26562C61.4948 1.99479 62.7122 3.03646 63.5977 4.39062C64.4831 5.73177 64.9258 7.22266 64.9258 8.86328H60.0039C60.0039 7.37891 59.5352 6.22005 58.5977 5.38672C57.6732 4.54036 56.3451 4.11719 54.6133 4.11719C52.9987 4.11719 51.7422 4.46224 50.8438 5.15234C49.9583 5.84245 49.5156 6.80599 49.5156 8.04297C49.5156 9.08464 49.9974 9.95703 50.9609 10.6602C51.9245 11.3503 53.513 12.0273 55.7266 12.6914C57.9401 13.3424 59.7174 14.0911 61.0586 14.9375C62.3997 15.7708 63.3828 16.7344 64.0078 17.8281C64.6328 18.9089 64.9453 20.1784 64.9453 21.6367C64.9453 24.0065 64.0339 25.8945 62.2109 27.3008C60.401 28.694 57.9401 29.3906 54.8281 29.3906C52.7708 29.3906 50.8763 29.013 49.1445 28.2578C47.4258 27.4896 46.0846 26.4349 45.1211 25.0938C44.1706 23.7526 43.6953 22.1901 43.6953 20.4062H48.6367C48.6367 22.0208 49.1706 23.2708 50.2383 24.1562C51.306 25.0417 52.8359 25.4844 54.8281 25.4844C56.5469 25.4844 57.8359 25.1393 58.6953 24.4492C59.5677 23.7461 60.0039 22.8216 60.0039 21.6758ZM76.4961 29H71.5742V0.5625H76.4961V29Z" fill="#F7941D"/>
</svg>
