<svg width="74" height="74" viewBox="0 0 74 74" fill="none" xmlns="http://www.w3.org/2000/svg">
<path d="M53.1875 47.4063C53.1875 48.5497 53.5266 49.6674 54.1618 50.6181C54.7971 51.5689 55.7 52.3099 56.7564 52.7474C57.8127 53.185 58.9752 53.2995 60.0966 53.0764C61.2181 52.8533 62.2482 52.3027 63.0567 51.4942C63.8652 50.6857 64.4159 49.6556 64.6389 48.5341C64.862 47.4127 64.7475 46.2502 64.3099 45.1939C63.8724 44.1375 63.1314 43.2346 62.1806 42.5993C61.2299 41.9641 60.1122 41.625 58.9688 41.625C57.436 41.6268 55.9666 42.2365 54.8828 43.3203C53.799 44.4041 53.1893 45.8735 53.1875 47.4063ZM62.4375 47.4063C62.4375 48.0923 62.2341 48.763 61.8529 49.3334C61.4718 49.9038 60.93 50.3484 60.2962 50.611C59.6624 50.8735 58.9649 50.9422 58.292 50.8084C57.6192 50.6745 57.0011 50.3441 56.516 49.859C56.0309 49.3739 55.7005 48.7558 55.5667 48.083C55.4328 47.4101 55.5015 46.7127 55.764 46.0788C56.0266 45.445 56.4712 44.9032 57.0416 44.5221C57.6121 44.1409 58.2827 43.9375 58.9688 43.9375C59.8887 43.9375 60.771 44.303 61.4215 44.9535C62.072 45.604 62.4375 46.4863 62.4375 47.4063Z" fill="#F7941D"/>
<path d="M62.9925 63.9522C66.5075 59.4197 71.6875 51.9619 71.6875 47.4062C71.681 44.4368 70.6377 41.5628 68.7377 39.2807C66.8377 36.9986 64.2004 35.4517 61.2813 34.9072V21.9687L65.6172 23.0903C65.7118 23.1132 65.8089 23.1249 65.9063 23.125C66.2129 23.125 66.507 23.0032 66.7239 22.7863C66.9407 22.5695 67.0625 22.2754 67.0625 21.9687V15.0312C67.063 14.7746 66.978 14.525 66.821 14.322C66.664 14.1189 66.4439 13.9738 66.1953 13.9097L34.9766 5.81593C34.7866 5.76969 34.5884 5.76969 34.3985 5.81593L3.1797 13.9097C2.93117 13.9738 2.71106 14.1189 2.55405 14.322C2.39704 14.525 2.31206 14.7746 2.31251 15.0312V21.9687C2.31162 22.1455 2.3519 22.3201 2.43017 22.4787C2.50843 22.6372 2.62254 22.7754 2.76345 22.8822C2.90302 22.9891 3.06484 23.0634 3.23695 23.0994C3.40907 23.1354 3.58708 23.1323 3.75783 23.0903L8.09376 21.9687V63.5937C8.09376 63.9004 8.21558 64.1945 8.43242 64.4113C8.64926 64.6282 8.94336 64.75 9.25001 64.75H52.2394C50.7594 65.3975 49.7188 66.3456 49.7188 67.6406C49.7188 70.4156 54.5172 71.6875 58.9688 71.6875C63.4203 71.6875 68.2188 70.4156 68.2188 67.6406C68.2188 65.6403 65.7791 64.4841 62.9925 63.9522ZM69.375 47.4062C69.375 51.8809 62.5185 61.0153 58.9688 65.2819C55.4191 61.0153 48.5625 51.8809 48.5625 47.4062C48.5625 44.6463 49.6589 41.9995 51.6104 40.0479C53.562 38.0964 56.2089 37 58.9688 37C61.7287 37 64.3755 38.0964 66.3271 40.0479C68.2786 41.9995 69.375 44.6463 69.375 47.4062ZM42.7813 37V32.375C42.7832 31.4609 43.0553 30.5679 43.5634 29.8081C44.0715 29.0483 44.7929 28.4556 45.6369 28.1047C46.4809 27.7538 47.4098 27.6602 48.3069 27.8357C49.2039 28.0112 50.029 28.4481 50.6785 29.0912C51.5436 29.9654 52.0296 31.1451 52.0313 32.375V36.7572L51.6844 37H42.7813ZM4.62501 20.4772V15.9216L34.6875 8.12843L64.75 15.9216V20.4772L34.9766 12.7534C34.7866 12.7072 34.5884 12.7072 34.3985 12.7534L4.62501 20.4772ZM33.5313 62.4375H27.75V46.25H33.5313V62.4375ZM41.625 62.4375H35.8438V46.25H41.625V62.4375ZM43.9375 62.4375V45.0937C43.9375 44.7871 43.8157 44.493 43.5989 44.2761C43.382 44.0593 43.0879 43.9375 42.7813 43.9375H26.5938C26.2871 43.9375 25.993 44.0593 25.7762 44.2761C25.5593 44.493 25.4375 44.7871 25.4375 45.0937V62.4375H10.4063V21.3675L34.6875 15.0659L58.9688 21.3675V34.6875C57.386 34.692 55.8179 34.9899 54.3438 35.5662V32.375C54.3438 30.535 53.6129 28.7705 52.3118 27.4694C51.0108 26.1684 49.2462 25.4375 47.4063 25.4375C45.5663 25.4375 43.8017 26.1684 42.5007 27.4694C41.1997 28.7705 40.4688 30.535 40.4688 32.375V37H39.3125V39.3125H49.1638C47.2784 41.5881 46.2477 44.4511 46.25 47.4062C46.25 51.4762 50.401 57.8819 53.7888 62.4375H43.9375ZM58.9688 69.375C54.5288 69.375 52.17 68.1031 52.0313 67.6637C52.1353 67.3053 53.6153 66.3919 56.61 66.045C57.431 67.0625 57.9975 67.71 58.1016 67.8256C58.2101 67.9486 58.3435 68.0472 58.493 68.1147C58.6426 68.1822 58.8047 68.2171 58.9688 68.2171C59.1328 68.2171 59.295 68.1822 59.4445 68.1147C59.594 68.0472 59.7274 67.9486 59.8359 67.8256C59.94 67.71 60.5066 67.0625 61.3275 66.045C64.3222 66.3919 65.8022 67.3053 65.9063 67.6175C65.7675 68.1031 63.4088 69.375 58.9688 69.375Z" fill="#F7941D"/>
<path d="M30.0625 53.1875H32.375V55.5H30.0625V53.1875Z" fill="#F7941D"/>
<path d="M37 53.1875H39.3125V55.5H37V53.1875Z" fill="#F7941D"/>
<path d="M28.9062 37V32.375C28.9062 30.5351 28.1753 28.7705 26.8743 27.4694C25.5733 26.1684 23.8087 25.4375 21.9688 25.4375C20.1288 25.4375 18.3642 26.1684 17.0632 27.4694C15.7622 28.7705 15.0312 30.5351 15.0312 32.375V37H13.875V39.3125H30.0625V37H28.9062ZM26.5938 37H17.3438V32.375C17.3438 31.1484 17.831 29.972 18.6984 29.1046C19.5657 28.2373 20.7421 27.75 21.9688 27.75C23.1954 27.75 24.3718 28.2373 25.2391 29.1046C26.1065 29.972 26.5938 31.1484 26.5938 32.375V37Z" fill="#F7941D"/>
</svg>
