<svg width="59" height="59" viewBox="0 0 59 59" fill="none" xmlns="http://www.w3.org/2000/svg">
<path d="M55.9693 49.3474L42.404 35.7724C42.1022 35.4705 41.6605 35.3559 41.2502 35.4733L39.23 36.0509C39.1129 36.0845 39.0018 36.1358 38.9005 36.2035L33.7592 39.6367C27.7456 35.622 22.5565 30.3144 18.6758 24.2106L20.9007 21.9841L20.9012 21.9835L22.6334 20.2501C22.7747 20.1087 22.8775 19.9337 22.9324 19.7416L23.5096 17.7199C23.6269 17.3092 23.5123 16.8673 23.2106 16.5653L9.64571 2.9901C9.31982 2.6641 8.834 2.55869 8.4021 2.7206L6.09303 3.58711C5.93608 3.64603 5.79342 3.73794 5.67473 3.8566C5.16793 4.36378 4.68037 4.90981 4.22589 5.47937L4.22531 5.48006C-1.92072 13.1799 -1.29753 24.2482 5.67484 31.2256L27.7542 53.3211C31.5157 57.0854 36.4658 59.0005 41.4365 59C45.6794 58.9998 49.9377 57.6039 53.481 54.7716C54.0507 54.3162 54.5965 53.8282 55.1033 53.3211C55.2218 53.2024 55.3137 53.0596 55.3726 52.9025L56.2384 50.592C56.4003 50.1601 56.295 49.6735 55.9693 49.3474ZM7.16102 5.69813L8.51895 5.18865L21.0601 17.7391L20.7565 18.8026L20.0706 19.489L6.73996 6.14856C6.87812 5.9953 7.01871 5.84504 7.16102 5.69813ZM29.4161 51.6581L7.33664 29.5626C1.52606 23.7478 0.73486 14.699 5.27775 8.0113L18.4088 21.152L16.354 23.2083C15.9702 23.5923 15.8993 24.1896 16.1823 24.653C20.4277 31.6053 26.2872 37.6158 33.1275 42.0348C33.5208 42.2889 34.0276 42.285 34.4171 42.025L37.3257 40.0826L50.9517 53.7185C44.2689 58.2648 35.2268 57.4729 29.4161 51.6581ZM53.2632 51.834C53.1165 51.9764 52.9662 52.1169 52.8131 52.2554L39.319 38.7513L40.0523 38.2618L41.231 37.9246L53.7723 50.4751L53.2632 51.834Z" fill="#F7941D"/>
<path d="M31.6668 49.1274L23.3275 40.7821C22.8686 40.3229 22.1245 40.323 21.6656 40.7821C21.2067 41.2413 21.2067 41.9859 21.6656 42.4452L30.005 50.7906C30.2343 51.0203 30.5352 51.135 30.8358 51.135C31.1365 51.135 31.4373 51.0202 31.6668 50.7906C32.1256 50.3314 32.1256 49.5868 31.6668 49.1274Z" fill="#F7941D"/>
<path d="M20.1925 37.646L19.6329 37.0859C19.1741 36.6267 18.43 36.6267 17.971 37.0859C17.5122 37.5451 17.5122 38.2897 17.971 38.749L18.5307 39.3091C18.7603 39.5388 19.0609 39.6535 19.3616 39.6535C19.6622 39.6535 19.9631 39.5388 20.1925 39.3091C20.6514 38.8499 20.6514 38.1053 20.1925 37.646Z" fill="#F7941D"/>
<path d="M28.1622 15.0102C27.5132 15.0102 26.9872 15.5367 26.9872 16.1861C26.9872 16.8356 27.5132 17.362 28.1622 17.362C35.5997 17.362 41.6507 23.4174 41.6507 30.8603C41.6507 31.5098 42.1767 32.0362 42.8257 32.0362C43.4747 32.0362 44.0008 31.5098 44.0008 30.8603C44.0008 22.1207 36.8957 15.0102 28.1622 15.0102Z" fill="#F7941D"/>
<path d="M28.1622 7.61715C27.5132 7.61715 26.9872 8.14358 26.9872 8.79305C26.9872 9.44253 27.5132 9.96896 28.1622 9.96896C39.6734 9.96896 49.0383 19.3408 49.0383 30.8603C49.0383 31.5098 49.5644 32.0362 50.2134 32.0362C50.8624 32.0362 51.3884 31.5098 51.3884 30.8603C51.3884 18.044 40.9692 7.61715 28.1622 7.61715Z" fill="#F7941D"/>
<path d="M49.9678 9.03879C44.1433 3.21012 36.3992 0 28.1622 0C27.5132 0 26.9872 0.526429 26.9872 1.1759C26.9872 1.82538 27.5132 2.35181 28.1622 2.35181C43.8704 2.35181 56.6499 15.1406 56.6499 30.8603C56.6499 31.5098 57.176 32.0362 57.825 32.0362C58.474 32.0362 59 31.5098 59 30.8603C59 22.6173 55.7922 14.8676 49.9678 9.03879Z" fill="#F7941D"/>
</svg>
