<svg width="57" height="57" viewBox="0 0 57 57" fill="none" xmlns="http://www.w3.org/2000/svg">
<path d="M56.6739 18.5839L50.9883 12.8981V1.11328C50.9883 0.498416 50.4898 0 49.875 0H33.4739C32.8592 0 32.3606 0.498416 32.3606 1.11328C32.3606 1.72815 32.8592 2.22656 33.4739 2.22656H48.7617V24.9216L28.4499 45.2335L8.23828 25.0219V2.22656H23.4544C24.0691 2.22656 24.5677 1.72815 24.5677 1.11328C24.5677 0.498416 24.0691 0 23.4544 0H7.125C6.51025 0 6.01172 0.498416 6.01172 1.11328V12.8981L0.32608 18.5839C0.11734 18.7926 0 19.0759 0 19.3711V51.4336C0 54.5029 2.49709 57 5.56641 57H51.4336C54.5029 57 57 54.5029 57 51.4336V19.3711C57 19.0759 56.8827 18.7926 56.6739 18.5839ZM54.7734 51.4336C54.7734 51.9485 54.6561 52.4366 54.447 52.8726L39.2034 37.6289L54.7734 22.0589V51.4336ZM50.9883 16.0471L54.3123 19.3711L50.9883 22.695V16.0471ZM2.55298 52.8726C2.3439 52.4366 2.22656 51.9486 2.22656 51.4336V22.159L17.7465 37.679L2.55298 52.8726ZM6.01172 22.7952L2.63759 19.4212L6.01172 16.0471V22.7952ZM5.56641 54.7734C5.05151 54.7734 4.56345 54.6561 4.12749 54.447L19.321 39.2534L27.6627 47.5951C27.8716 47.8039 28.1547 47.9212 28.4499 47.9212C28.7451 47.9212 29.0283 47.8039 29.2371 47.5951L37.6289 39.2034L52.8726 54.4471C52.4366 54.6562 51.9486 54.7736 51.4336 54.7736L5.56641 54.7734Z" fill="#F7941D"/>
<path d="M28.4648 2.22656C28.7575 2.22656 29.0448 2.10744 29.2518 1.90037C29.4588 1.6933 29.578 1.40607 29.578 1.11328C29.578 0.820488 29.4589 0.533262 29.2518 0.326191C29.0448 0.119121 28.7575 0 28.4648 0C28.1708 0 27.8847 0.119121 27.6777 0.326191C27.4707 0.533262 27.3515 0.820488 27.3515 1.11328C27.3515 1.40607 27.4706 1.6933 27.6777 1.90037C27.8847 2.10744 28.1708 2.22656 28.4648 2.22656Z" fill="#F7941D"/>
<path d="M17.9681 13.4904C16.4577 16.2348 16.0603 19.3986 16.8495 22.399C17.5331 24.9981 19.0089 27.2402 21.1176 28.8831C23.1479 30.4649 25.677 31.3752 28.2386 31.446C28.2492 31.4463 28.2596 31.4464 28.2699 31.4464C28.8705 31.4464 29.3655 30.968 29.3822 30.3639C29.3991 29.7493 28.9147 29.2372 28.3001 29.2203C23.9381 29.0997 20.1151 26.0618 19.0027 21.8328C17.6631 16.7392 20.5479 11.4969 25.5701 9.89808C28.118 9.08694 30.8227 9.32585 33.186 10.5705C35.5445 11.8126 37.2689 13.9 38.0433 16.4495C38.5366 18.3125 38.3766 20.0395 37.5096 22.2198C37.2623 22.8413 36.4947 24.2871 34.709 24.2871C34.4266 24.2871 34.1408 24.1562 33.9042 23.9185C33.587 23.5997 33.4064 23.1495 33.4087 22.6779V13.4737C33.4087 12.8589 32.9102 12.3604 32.2954 12.3604C31.6806 12.3604 31.1822 12.8589 31.1822 13.4737V13.8283C30.3131 13.1039 29.2337 12.6903 28.0243 12.6903C25.2126 12.6903 22.3043 15.1278 22.3043 19.2069C22.3043 21.0047 22.8741 22.6886 23.9086 23.9481C24.9574 25.2252 26.4149 25.9575 27.9072 25.9575C29.3061 25.9575 30.5661 25.3398 31.5254 24.3101C31.7184 24.7476 31.9882 25.1495 32.3259 25.4889C32.9834 26.1496 33.8298 26.5136 34.709 26.5136C37.2816 26.5136 38.9112 24.7205 39.5785 23.0425C40.625 20.411 40.8137 18.1952 40.1899 15.858C40.1868 15.8465 40.1835 15.8349 40.18 15.8234C39.2346 12.6906 37.1192 10.1254 34.2234 8.60044C31.3283 7.07569 28.0153 6.78301 24.8947 7.77639C21.938 8.71767 19.4781 10.7468 17.9681 13.4904ZM27.9073 23.7309C26.0456 23.7309 24.531 21.7014 24.531 19.2068C24.531 16.5214 26.3072 14.9168 28.0244 14.9168C29.8746 14.9168 31.1668 16.6671 31.1668 19.173C31.1667 21.6863 29.7045 23.7309 27.9073 23.7309Z" fill="#F7941D"/>
</svg>
