<svg width="60" height="60" viewBox="0 0 60 60" fill="none" xmlns="http://www.w3.org/2000/svg">
<path d="M59.2616 42.8112L53.7266 40.8407C53.2165 40.6602 52.6538 40.918 52.4692 41.4169L52.1332 42.3184L45.721 40.0315C45.56 39.9724 45.3855 39.9579 45.2163 39.9883L31.8752 42.2927C30.6658 42.5032 29.627 43.2542 29.0653 44.3222L22.9455 42.1389C21.9681 41.7873 20.8867 41.8341 19.9448 42.2687C18.7478 42.8149 17.9114 43.9111 17.7163 45.1886C17.4718 47.0377 18.5916 48.8001 20.3954 49.4044L40.5542 56.5808C40.6616 56.6197 40.7756 56.6399 40.8902 56.6394C40.9971 56.6394 41.103 56.6221 41.2042 56.5888L46.8341 54.7299L47.4333 54.9427L47.0972 55.8452C46.9127 56.3441 47.1763 56.8949 47.6863 57.0754L53.2223 59.0455C53.3292 59.0844 53.4428 59.1046 53.5569 59.1041C53.9696 59.1046 54.3387 58.8519 54.4796 58.4726L59.8516 44.0353C60.0323 43.5379 59.7687 42.9912 59.2616 42.8112ZM46.5316 52.8053L40.9017 54.6642L21.0664 47.6022C20.149 47.3035 19.5637 46.424 19.6567 45.4821C19.7396 44.9083 20.0828 44.4019 20.5909 44.1033C21.099 43.8051 21.7174 43.7474 22.2739 43.9462L28.6434 46.213C28.6468 46.3903 28.6612 46.567 28.6875 46.7419C29.0724 48.8244 31.101 50.215 33.2336 49.8578L44.2859 47.9519L43.9441 46.0602L32.8971 47.9665C31.8335 48.1432 30.8211 47.4531 30.6226 46.4156C30.5819 46.1966 30.5833 45.9716 30.6274 45.7531C30.6346 45.7212 30.6404 45.6894 30.6442 45.657C30.6572 45.575 30.6797 45.4948 30.7118 45.4179C30.9529 44.7733 31.5262 44.303 32.2169 44.1821L45.2968 41.926L51.4621 44.1197L48.1043 53.1452L47.1816 52.818C46.9726 52.742 46.7435 52.7373 46.5316 52.8053ZM52.9658 56.916L49.2759 55.6024L53.9758 42.9706L57.6663 44.2838L52.9658 56.916Z" fill="#F7941D"/>
<path d="M23.5082 16.436C23.8251 17.5706 24.4094 18.617 25.2142 19.4905C25.1994 19.5674 25.1888 19.6447 25.184 19.723V24.9519C25.184 26.5427 26.5022 27.8324 28.1291 27.8324V37.4341C28.1267 37.7998 28.3376 38.135 28.6717 38.2982L30.6351 39.2584C30.9117 39.3934 31.2367 39.3934 31.5128 39.2584L33.4762 38.2982C33.8108 38.135 34.0212 37.7998 34.0193 37.4341V27.8324C35.6457 27.8324 36.9644 26.5427 36.9644 24.9519V19.723C36.9591 19.6391 36.9481 19.5556 36.9318 19.4731C37.5876 18.7675 38.0985 17.9452 38.437 17.0507C39.8865 17.2888 41.3375 16.6376 42.0987 15.4079C43.0319 13.8977 42.7765 11.9572 41.4822 10.728L33.493 2.91579C32.2074 1.65181 30.4578 0.942936 28.6344 0.947624H18.3122C18.1789 0.947156 18.0476 0.973879 17.9253 1.02545L11.2437 3.82814H10.4586V1.9078C10.4586 1.37754 10.019 0.947624 9.47688 0.947624H1.6233C1.08116 0.947624 0.641602 1.37754 0.641602 1.9078V17.2705C0.641602 17.8008 1.08116 18.2307 1.6233 18.2307H9.47688C10.019 18.2307 10.4586 17.8008 10.4586 17.2705V15.3502H10.6019C11.3046 17.6545 14.4616 19.1909 17.3305 19.1909C19.7104 19.2387 21.9839 18.2251 23.5082 16.436ZM8.49518 16.3104H2.605V2.86797H8.49518V16.3104ZM32.0559 36.8406L31.0742 37.3207L30.0925 36.8406V27.8324H32.0559V36.8406ZM35.001 24.9519C35.001 25.4822 34.5615 25.9121 34.0193 25.9121H28.1291C27.587 25.9121 27.1474 25.4822 27.1474 24.9519V21.0325C27.8075 21.4085 28.5212 21.6869 29.2647 21.8581C29.6041 22.6659 30.4549 23.1506 31.3403 23.0409C32.2261 22.9317 32.9269 22.2552 33.0501 21.3902C33.1733 20.5256 32.6882 19.6874 31.8671 19.3451C31.0455 19.0033 30.0916 19.242 29.5398 19.9284C28.9862 19.7863 28.4565 19.5655 27.969 19.2725C28.9153 18.7113 29.9746 18.3559 31.0742 18.2307C32.4835 18.4243 33.8276 18.9354 35.001 19.723V24.9519ZM35.732 17.9166C34.3285 17.0338 32.7337 16.4838 31.0742 16.3104C29.4176 16.4829 27.8252 17.0319 26.4236 17.9128C25.8249 17.1674 25.4285 16.286 25.2713 15.3502H30.0925C31.5306 15.3643 32.8555 14.5888 33.5222 13.3426L36.2713 16.0309C36.381 16.1313 36.497 16.2246 36.6188 16.3104C36.4165 16.8903 36.1169 17.4332 35.732 17.9166ZM33.9728 11.0669C33.8813 10.2812 33.5409 9.54275 33.0002 8.95436C35.2206 9.70872 36.7703 11.6816 36.9428 13.9742L33.9728 11.0669ZM22.2389 14.39C22.2389 15.8439 19.8072 17.2705 17.3305 17.2705C14.8537 17.2705 12.422 15.8439 12.422 14.39C12.422 13.8598 11.9824 13.4298 11.4403 13.4298H10.4586V5.74848H11.4403C11.5731 5.74895 11.7049 5.72223 11.8271 5.67065L18.5082 2.86797H28.6296C29.9334 2.86328 31.1854 3.36962 32.1048 4.27353L40.0921 12.0857C40.7378 12.6755 40.883 13.6225 40.4425 14.3717C40.1147 14.8795 39.5414 15.1842 38.9278 15.1772C38.912 15.1772 38.8971 15.1772 38.8813 15.1772C38.911 14.9161 38.9264 14.653 38.9278 14.39C38.923 10.1499 35.4094 6.71334 31.0742 6.70865C29.7551 6.71053 28.458 7.04105 27.3051 7.66882H19.2939V9.58916H30.0925C31.1768 9.58916 32.0559 10.449 32.0559 11.5095C32.0559 12.57 31.1768 13.4298 30.0925 13.4298H23.2206C22.6785 13.4298 22.2389 13.8598 22.2389 14.39Z" fill="#F7941D"/>
</svg>
