<svg width="72" height="70" viewBox="0 0 72 70" fill="none" xmlns="http://www.w3.org/2000/svg">
<g clip-path="url(#clip0_673_180)">
<path d="M70.5237 9.66547C70.4827 9.62724 62.3702 1.96029 62.3702 1.96029C62.0601 1.6654 61.7394 1.36062 61.1323 1.36091L28.0269 1.37653C27.0599 1.37699 26.262 2.14678 26.2484 3.09261L26.1724 8.35981L14.4762 10.3217C13.5386 10.4826 12.897 11.3584 13.0459 12.2722L13.5893 15.6492C9.77876 16.8994 5.86649 18.1881 2.08855 19.5106C1.19576 19.8286 0.715698 20.7949 1.02003 21.6687L8.20379 41.9963C8.34829 42.4053 8.73881 42.6599 9.15926 42.6597C9.27439 42.6597 9.39198 42.6405 9.50714 42.6C10.0428 42.4123 10.3277 41.8376 10.1436 41.3163L3.06607 21.2894C6.62531 20.0475 10.3102 18.832 13.9114 17.6502L20.8658 60.8827C21.0005 61.6995 21.7262 62.2804 22.5548 62.28C22.6486 62.28 22.7438 62.2725 22.8395 62.257L42.4499 58.9656L19.2489 67.0934L11.6551 45.5927C11.471 45.0715 10.8877 44.8012 10.3518 44.9888C9.81616 45.1764 9.53126 45.7511 9.7153 46.2724L17.4168 68.0786C17.6633 68.7643 18.3214 69.1904 19.0235 69.19C19.2175 69.1899 19.415 69.1572 19.608 69.0885L54.0694 57.0167L58.628 56.2521L68.6738 56.2474C69.6408 56.2469 70.4386 55.4754 70.4523 54.5274L71.0834 10.7955C71.0922 10.1951 70.7636 9.88897 70.5237 9.66547ZM67.8033 9.90428L62.6717 9.9067L62.5446 9.9073C62.2988 9.90902 61.7236 9.91343 61.5797 9.77174C61.5465 9.73899 61.5087 9.6296 61.5117 9.42644L61.5778 4.02123L67.8033 9.90428ZM68.4056 54.2411L27.5609 54.2604L27.8431 34.7116C27.8511 34.1576 27.3984 33.7087 26.832 33.709C26.2657 33.7092 25.8001 34.1586 25.7921 34.7125L25.5058 54.5484C25.4922 55.4962 26.2678 56.2671 27.2347 56.2667L46.4882 56.2576L22.8412 60.226L15.1224 12.2437L26.1429 10.3951L25.8591 30.0583C25.8511 30.6122 26.3038 31.0611 26.8701 31.0609C27.4365 31.0606 27.9021 30.6113 27.9101 30.0573L28.295 3.3824L59.5348 3.36766L59.4607 9.42969C59.4501 10.1645 59.67 10.7587 60.1142 11.1961C60.7968 11.8681 61.7747 11.9145 62.3822 11.9142C62.4344 11.9141 62.4839 11.9137 62.5303 11.9134L69.0165 11.91L68.4056 54.2411Z" fill="#D9D9D9"/>
<path d="M33.6958 16.7783C33.6878 17.3323 34.1404 17.7812 34.7068 17.7809L64.0269 17.7671C64.5933 17.7668 65.0589 17.3175 65.0669 16.7635C65.0749 16.2096 64.6222 15.7607 64.0559 15.761L34.7357 15.7748C34.1694 15.7751 33.7038 16.2244 33.6958 16.7783Z" fill="#D9D9D9"/>
<path d="M63.953 22.8871L34.6329 22.9009C34.0665 22.9012 33.6009 23.3505 33.5929 23.9045C33.5849 24.4584 34.0376 24.9073 34.6039 24.907L63.9241 24.8932C64.4904 24.8929 64.956 24.4436 64.964 23.8896C64.972 23.3357 64.5194 22.8868 63.953 22.8871Z" fill="#D9D9D9"/>
<path d="M63.8502 30.0131L34.53 30.027C33.9637 30.0272 33.4981 30.4766 33.4901 31.0305C33.4821 31.5845 33.9348 32.0334 34.5011 32.0331L63.8212 32.0193C64.3876 32.019 64.8532 31.5697 64.8612 31.0157C64.8692 30.4618 64.4165 30.0129 63.8502 30.0131Z" fill="#D9D9D9"/>
<path d="M63.7474 37.1392L34.4272 37.1531C33.8609 37.1533 33.3952 37.6027 33.3872 38.1566C33.3793 38.7106 33.8319 39.1595 34.3983 39.1592L63.7184 39.1454C64.2847 39.1451 64.7504 38.6958 64.7584 38.1418C64.7664 37.5879 64.3137 37.139 63.7474 37.1392Z" fill="#D9D9D9"/>
<path d="M63.6445 44.2654L34.3244 44.2793C33.758 44.2795 33.2924 44.7289 33.2844 45.2828C33.2764 45.8368 33.7291 46.2857 34.2954 46.2854L63.6156 46.2716C64.1819 46.2713 64.6475 45.822 64.6555 45.268C64.6635 44.7141 64.2109 44.2652 63.6445 44.2654Z" fill="#D9D9D9"/>
</g>
<defs>
<clipPath id="clip0_673_180">
<rect width="70.2534" height="68.8399" fill="white" transform="matrix(1 0 -0.0139373 0.999903 1.10645 0.584351)"/>
</clipPath>
</defs>
</svg>
