<svg width="22" height="26" viewBox="0 0 22 26" fill="none" xmlns="http://www.w3.org/2000/svg">
<path d="M13.5 1H3.5C2.83696 1 2.20107 1.25286 1.73223 1.70294C1.26339 2.15303 1 2.76348 1 3.4V22.6C1 23.2365 1.26339 23.847 1.73223 24.2971C2.20107 24.7471 2.83696 25 3.5 25H18.5C19.163 25 19.7989 24.7471 20.2678 24.2971C20.7366 23.847 21 23.2365 21 22.6V8.2M13.5 1L21 8.2M13.5 1V8.2H21M16 14.2H6M16 19H6M8.5 9.4H6" stroke="#373432" stroke-width="2" stroke-linecap="round" stroke-linejoin="round"/>
</svg>
