<svg width="23" height="23" viewBox="0 0 23 23" fill="none" xmlns="http://www.w3.org/2000/svg">
<path d="M21.9994 16.7225V19.8839C22.0005 20.1774 21.9403 20.4679 21.8225 20.7368C21.7047 21.0057 21.5319 21.247 21.3152 21.4454C21.0985 21.6438 20.8427 21.7949 20.5642 21.8889C20.2856 21.9829 19.9904 22.0179 19.6975 21.9914C16.4484 21.6391 13.3275 20.5311 10.5853 18.7563C8.03418 17.1384 5.87123 14.9798 4.2501 12.4336C2.46565 9.68454 1.35515 6.55458 1.00857 3.29735C0.982184 3.00594 1.01689 2.71225 1.11046 2.43496C1.20404 2.15767 1.35444 1.90287 1.5521 1.68677C1.74975 1.47067 1.99033 1.29802 2.2585 1.1798C2.52668 1.06157 2.81659 1.00038 3.10976 1.0001H6.27738C6.78981 0.995069 7.28658 1.17617 7.67511 1.50964C8.06364 1.84311 8.31741 2.30621 8.38913 2.81261C8.52283 3.82431 8.77078 4.81767 9.12824 5.77374C9.2703 6.15091 9.30105 6.56082 9.21684 6.9549C9.13263 7.34898 8.93699 7.71071 8.6531 7.99722L7.31214 9.33552C8.81524 11.9737 11.004 14.1581 13.6474 15.6582L14.9883 14.3199C15.2754 14.0366 15.6379 13.8413 16.0327 13.7573C16.4276 13.6732 16.8383 13.7039 17.2162 13.8457C18.1742 14.2025 19.1695 14.4499 20.1832 14.5834C20.6962 14.6556 21.1646 14.9134 21.4994 15.3078C21.8343 15.7022 22.0122 16.2057 21.9994 16.7225Z" stroke="#373432" stroke-width="2" stroke-linecap="round" stroke-linejoin="round"/>
</svg>
