<svg width="17" height="17" viewBox="0 0 17 17" fill="none" xmlns="http://www.w3.org/2000/svg">
<circle cx="8.5" cy="8.5" r="8.5" fill="#EFEFEF"/>
<path d="M7.5415 10.7261C7.5415 10.0425 7.62451 9.49805 7.79053 9.09277C7.95654 8.6875 8.25928 8.28955 8.69873 7.89893C9.14307 7.50342 9.43848 7.18359 9.58496 6.93945C9.73145 6.69043 9.80469 6.4292 9.80469 6.15576C9.80469 5.33057 9.42383 4.91797 8.66211 4.91797C8.30078 4.91797 8.01025 5.03027 7.79053 5.25488C7.57568 5.47461 7.46338 5.77979 7.45361 6.17041H5.32959C5.33936 5.23779 5.63965 4.50781 6.23047 3.98047C6.82617 3.45312 7.63672 3.18945 8.66211 3.18945C9.69727 3.18945 10.5005 3.44092 11.0718 3.94385C11.6431 4.44189 11.9287 5.14746 11.9287 6.06055C11.9287 6.47559 11.8359 6.86865 11.6504 7.23975C11.4648 7.60596 11.1401 8.01367 10.6763 8.46289L10.083 9.02686C9.71191 9.3833 9.49951 9.80078 9.4458 10.2793L9.4165 10.7261H7.5415ZM7.3291 12.9746C7.3291 12.6475 7.43896 12.3789 7.65869 12.1689C7.8833 11.9541 8.16895 11.8467 8.51562 11.8467C8.8623 11.8467 9.14551 11.9541 9.36523 12.1689C9.58984 12.3789 9.70215 12.6475 9.70215 12.9746C9.70215 13.2969 9.59229 13.563 9.37256 13.7729C9.15771 13.9829 8.87207 14.0879 8.51562 14.0879C8.15918 14.0879 7.87109 13.9829 7.65137 13.7729C7.43652 13.563 7.3291 13.2969 7.3291 12.9746Z" fill="#F7941D"/>
</svg>
