<svg width="78" height="59" viewBox="0 0 78 59" fill="none" xmlns="http://www.w3.org/2000/svg">
<path d="M76.1189 36.0391C75.1644 35.5265 73.9533 35.6392 72.7958 36.3482L51.4136 49.4501C50.8185 49.8149 50.6399 50.5798 51.0146 51.1588C51.3895 51.7378 52.1755 51.9116 52.7706 51.547L74.1528 38.4451C74.6044 38.1684 74.8515 38.1887 74.888 38.2086C74.9251 38.2284 75.0741 38.4208 75.0741 38.9401C75.0741 40.3358 74.0095 42.2125 72.7958 42.9563L52.0669 55.6577C50.9647 56.3331 49.9571 56.5187 49.3023 56.1672C48.6477 55.8155 48.2723 54.8869 48.2723 53.6193C48.2723 50.4081 50.6314 46.2497 53.424 44.5387L77.0261 30.0767C77.3964 29.8499 77.6209 29.4539 77.6209 29.0282C77.6209 28.6025 77.3962 28.2065 77.0261 27.9796L31.6744 0.190559C31.2599 -0.0635197 30.732 -0.0635197 30.3175 0.190559L6.42807 14.8287C3.03332 16.9089 0.374023 21.5961 0.374023 25.4998V26.1606C0.374023 30.0643 3.03332 34.7517 6.42807 36.8318L41.9599 58.6038C42.5549 58.9684 43.3411 58.7944 43.7158 58.2155C44.0905 57.6365 43.9119 56.8715 43.3168 56.5069L7.78505 34.7349C5.14816 33.1194 2.92059 29.1927 2.92059 26.1606V25.4998C2.92059 22.4677 5.14816 18.5412 7.78505 16.9256L30.9959 2.70326L73.958 29.028L52.067 42.4417C48.5112 44.6205 45.7257 49.5303 45.7257 53.6193C45.7257 55.8487 46.5588 57.524 48.0716 58.3366C48.6792 58.6631 49.3493 58.825 50.0595 58.825C51.1173 58.825 52.264 58.4655 53.4239 57.7546L74.1528 45.0532C76.0975 43.8616 77.6207 41.1764 77.6207 38.9401C77.6207 37.6092 77.0733 36.5519 76.1189 36.0391Z" fill="#D9D9D9"/>
<path d="M60.4161 30.2672C60.8391 30.2672 61.2527 30.0622 61.4948 29.6883C61.8695 29.1093 61.6909 28.3443 61.0958 27.9797L31.6744 9.95196C31.0792 9.58736 30.2932 9.76131 29.9185 10.3402C29.5438 10.9192 29.7224 11.6843 30.3175 12.0489L59.7388 30.0766C59.9495 30.2056 60.1842 30.2672 60.4161 30.2672Z" fill="#D9D9D9"/>
<path d="M55.3256 33.5553C55.7495 33.5553 56.1639 33.3495 56.4055 32.9743C56.7792 32.3946 56.5991 31.6299 56.0032 31.2665L43.574 23.6829C42.978 23.3192 42.1923 23.4948 41.8189 24.0745C41.4453 24.6543 41.6254 25.4189 42.2213 25.7823L54.6504 33.3658C54.8606 33.4942 55.0944 33.5553 55.3256 33.5553Z" fill="#D9D9D9"/>
<path d="M38.3863 26.9438C37.7899 26.5814 37.0044 26.7582 36.6319 27.3387C36.2594 27.9192 36.4411 28.6834 37.0377 29.0459L49.5622 36.6553C49.772 36.7827 50.005 36.8435 50.2353 36.8435C50.6599 36.8435 51.0752 36.6368 51.3166 36.2605C51.6891 35.68 51.5074 34.9158 50.9109 34.5533L38.3863 26.9438Z" fill="#D9D9D9"/>
<path d="M25.0263 13.1943L14.4445 19.6791C14.0732 19.9066 13.8484 20.3041 13.8498 20.7311C13.8511 21.1582 14.0781 21.5543 14.4508 21.7798L27.0707 29.4152C27.2767 29.5398 27.5098 29.6021 27.743 29.6021C27.9836 29.6021 28.224 29.5358 28.4342 29.4037L31.2449 27.636C31.8355 27.2645 32.0048 26.4976 31.6231 25.9229C31.2415 25.3482 30.4533 25.1836 29.8626 25.5548L27.73 26.8961L17.5235 20.7209L25.7064 15.7062L35.7644 21.8429L34.5918 22.5804C34.0011 22.9519 33.8319 23.7188 34.2135 24.2935C34.5953 24.8682 35.3839 25.033 35.9741 24.6616L38.8262 22.8677C39.1917 22.6377 39.4112 22.242 39.4084 21.8185C39.4053 21.3951 39.1802 21.0024 38.8114 20.7774L26.3811 13.1932C25.9669 12.9403 25.4402 12.9407 25.0263 13.1943Z" fill="#D9D9D9"/>
<path d="M46.2274 39.5465C46.5987 38.9654 46.4157 38.2015 45.8184 37.8402L33.1981 30.2044C32.6009 29.843 31.8157 30.0212 31.4446 30.6024C31.0733 31.1836 31.2563 31.9475 31.8535 32.3087L44.4738 39.9445C44.683 40.0712 44.9154 40.1315 45.1449 40.1315C45.5704 40.1315 45.9863 39.924 46.2274 39.5465Z" fill="#D9D9D9"/>
<path d="M9.46139 23.6902C9.0901 24.2714 9.27311 25.0353 9.87037 25.3966L41.0197 44.2428C41.2288 44.3695 41.4613 44.4299 41.6908 44.4299C42.1162 44.4299 42.5322 44.2224 42.7733 43.8449C43.1445 43.2637 42.9615 42.4998 42.3643 42.1385L11.215 23.2922C10.6177 22.9306 9.83268 23.109 9.46139 23.6902Z" fill="#D9D9D9"/>
</svg>
