<svg width="70" height="70" viewBox="0 0 70 70" fill="none" xmlns="http://www.w3.org/2000/svg">
<g clip-path="url(#clip0_748_457)">
<path d="M69.7149 29.8538L57.9987 14.6342C57.5651 14.0713 56.7741 13.9325 56.1744 14.3138L48.61 19.1246H38.7444C38.6167 19.1246 38.4896 19.1518 38.3668 19.1876L30.7175 21.3895L22.7803 19.2186L15.068 14.3138C14.4784 13.9389 13.7019 14.066 13.2634 14.6097L0.304492 30.6613C-0.161206 31.2381 -0.084302 32.0803 0.477527 32.5636L7.26967 38.4089L13.3633 46.6205C11.5811 48.5191 11.6158 51.5136 13.4701 53.3684C14.292 54.1897 15.3371 54.6538 16.4122 54.7617C16.3748 55.0052 16.3556 55.2525 16.3556 55.5035C16.3556 56.7991 16.8603 58.0173 17.7762 58.9332C18.6926 59.8497 19.9108 60.3544 21.2064 60.3544C21.2241 60.3544 21.2412 60.3533 21.2582 60.3528C21.2577 60.3859 21.2561 60.4185 21.2561 60.4516C21.2561 61.7472 21.7608 62.9654 22.6767 63.8818C23.5931 64.7977 24.8113 65.3024 26.107 65.3024C26.3628 65.3024 26.6159 65.2816 26.8642 65.2431C26.9695 66.3219 27.4346 67.3719 28.2592 68.1965C29.2045 69.1423 30.4467 69.6149 31.6889 69.6149C32.9311 69.6149 34.1734 69.1423 35.1192 68.1965L35.861 67.4547L36.1723 67.7057C37.1101 68.6141 38.3278 69.0681 39.5454 69.0681C40.7877 69.0681 42.0299 68.5954 42.9752 67.6496C43.9402 66.6846 44.4128 65.4108 44.3931 64.1435C45.6599 64.1627 46.9341 63.6906 47.8992 62.7261C48.8631 61.7616 49.3358 60.489 49.3171 59.2222C50.6368 59.243 51.8886 58.7362 52.8227 57.8021C53.7877 56.8371 54.2603 55.5633 54.2406 54.296C55.5084 54.3152 56.7816 53.8431 57.7467 52.8781C59.3937 51.2311 59.6057 48.6852 58.3843 46.8059L62.8336 37.4876L69.5226 31.7315C70.0754 31.2557 70.1598 30.4311 69.7149 29.8538ZM14.629 17.288L20.1746 20.8143L8.11081 35.5116L3.27652 31.3508L14.629 17.288ZM15.4114 48.4492L17.0851 46.7754C17.1359 46.7247 17.1893 46.6766 17.2437 46.6318C17.5711 46.3647 17.9674 46.2056 18.3871 46.1677C18.3989 46.1666 18.4112 46.1666 18.4229 46.1661C18.4827 46.1613 18.5426 46.158 18.6029 46.1586C19.1765 46.1666 19.7095 46.401 20.1047 46.8181C20.8801 47.6379 20.8385 48.9773 20.0118 49.8041L18.3888 51.4271C17.5679 52.2479 16.2322 52.2479 15.4114 51.4271C14.5905 50.6057 14.5905 49.27 15.4114 48.4492ZM19.7175 56.9919C19.3196 56.5946 19.1007 56.0659 19.1007 55.5035C19.1007 54.9412 19.3196 54.4124 19.7175 54.0146L22.963 50.7691C23.5846 50.1475 24.5619 49.9771 25.3566 50.3557C26.1758 50.7461 26.6367 51.6353 26.5166 52.5299C26.4525 53.0073 26.2303 53.457 25.8896 53.7983L22.6954 56.9919C22.2975 57.3898 21.7688 57.6088 21.2064 57.6088C20.6441 57.6088 20.1154 57.3898 19.7175 56.9919ZM24.618 61.94C24.2201 61.5426 24.0012 61.0139 24.0012 60.4516C24.0012 59.8892 24.2201 59.3605 24.618 58.9626L27.8629 55.7171C28.5278 55.0528 29.5943 54.9097 30.4083 55.3834C31.1517 55.8159 31.541 56.6651 31.4133 57.511C31.3434 57.9762 31.1223 58.4136 30.7896 58.7463L27.5959 61.94C27.198 62.3379 26.6693 62.5568 26.107 62.5568C25.5446 62.5568 25.0159 62.3379 24.618 61.94ZM30.2 66.2552C29.3791 65.4343 29.3791 64.0986 30.2 63.2778L31.8737 61.6041C31.9244 61.5533 31.9773 61.5058 32.0318 61.4609C32.0334 61.4599 32.0345 61.4588 32.0355 61.4577C32.3079 61.2366 32.6278 61.0887 32.9691 61.0241C32.9771 61.023 32.9851 61.0219 32.9931 61.0209C33.0518 61.0102 33.1117 61.0016 33.1715 60.9963C33.1955 60.9942 33.2195 60.9942 33.2441 60.9926C33.2932 60.9899 33.3418 60.9867 33.3915 60.9872C33.9645 60.9952 34.4981 61.2292 34.8933 61.6468C34.9419 61.6981 34.9873 61.7515 35.0289 61.8065C35.6602 62.6316 35.5753 63.8573 34.7918 64.6413L33.1773 66.2557C32.3565 67.0766 31.0208 67.076 30.2 66.2552ZM55.8054 50.9368C54.9845 51.7582 53.6488 51.7576 52.828 50.9368C52.7981 50.9069 52.7666 50.8791 52.7345 50.853L43.9087 41.9342C43.3752 41.3953 42.5063 41.391 41.9674 41.9246C41.4285 42.4576 41.4243 43.3265 41.9572 43.8653L50.8787 52.8797C50.8797 52.8808 50.8808 52.8818 50.8819 52.8829C51.7027 53.7038 51.7027 55.04 50.8819 55.8608C50.484 56.2587 49.9553 56.4776 49.3929 56.4776C48.83 56.4776 48.3013 56.2587 47.904 55.8608L41.9359 49.8308C41.4029 49.2919 40.534 49.2876 39.9951 49.8206C39.4563 50.3541 39.452 51.2231 39.985 51.7619L45.8617 57.6996C45.8917 57.737 45.9237 57.7727 45.9579 57.8069C46.7787 58.6278 46.7787 59.964 45.9579 60.7848C45.1365 61.6057 43.8003 61.6051 42.9794 60.7843L39.7222 57.4929C39.1887 56.954 38.3198 56.9492 37.7809 57.4827C37.2421 58.0157 37.2378 58.8846 37.7708 59.4235L40.9372 62.6225C40.9671 62.6599 40.9991 62.6962 41.0339 62.7304C41.8547 63.5512 41.8547 64.8875 41.0339 65.7083C40.213 66.5297 38.8773 66.5291 38.0565 65.7083C37.962 65.6138 37.8509 65.5411 37.7451 65.46C37.6554 65.3916 37.6319 65.3441 37.6768 65.2351C37.7222 65.1246 37.79 65.0247 37.8354 64.9136C37.8856 64.7897 37.9262 64.6621 37.9657 64.5339C38.1761 63.8557 38.2381 63.1261 38.1435 62.4222C37.962 61.0716 37.2191 59.8529 36.0933 59.0817C35.485 58.6657 34.7811 58.3928 34.0516 58.2902C34.4051 56.7308 33.9806 55.04 32.8761 53.873C31.9672 52.9128 30.7394 52.3739 29.4186 52.3558C29.3706 52.3553 29.3225 52.3553 29.2739 52.3558C29.3033 51.0954 28.8451 49.843 27.9762 48.925C27.0667 47.9648 25.8389 47.4259 24.5187 47.4077C24.1261 47.4024 23.7299 47.4441 23.3475 47.5322C23.1841 46.3952 22.611 45.3431 21.7432 44.5906C20.8807 43.844 19.796 43.4295 18.6408 43.4135C17.4248 43.3959 16.2301 43.8445 15.327 44.66L10.0211 37.5106L22.7146 22.0464L26.7601 23.153L21.4767 32.476C20.8379 33.6034 20.6767 34.9119 21.0222 36.1605C21.3677 37.4096 22.1784 38.4489 23.3058 39.0877C23.3763 39.1277 23.4473 39.1656 23.5194 39.2019C23.5248 39.2046 23.5301 39.2073 23.536 39.21C23.7256 39.3045 23.9205 39.3857 24.1181 39.454C25.0383 39.7729 26.0322 39.8076 26.9908 39.5427C28.2394 39.1971 29.2787 38.3859 29.9175 37.259L33.3509 31.2002L39.4814 31.6349L55.8059 47.9589C56.6262 48.7803 56.6262 50.116 55.8054 50.9368ZM56.3741 44.6451L41.06 29.3315C41.0312 29.3021 41.0008 29.2743 40.9692 29.2482C40.7487 29.0645 40.4752 28.9534 40.1868 28.9331L32.6807 28.4006C32.1616 28.3648 31.6457 28.641 31.3893 29.0933L27.5291 35.9057C27.252 36.3949 26.8007 36.7469 26.2586 36.8969C25.7171 37.047 25.1489 36.9765 24.6591 36.6993C24.1699 36.4222 23.818 35.9709 23.6679 35.4288C23.5178 34.8868 23.5878 34.3185 23.8655 33.8293L29.0186 24.7349L31.1068 24.134C31.1207 24.1298 31.134 24.1244 31.1479 24.1202L38.9414 21.8696H48.3579L60.1136 36.8136L56.3741 44.6451ZM61.9118 34.6592L51.0405 20.832L56.5888 17.3034L66.7471 30.4984L61.9118 34.6592Z" fill="#F7941D"/>
<path d="M42.4077 16.5472C42.7591 16.5472 43.1105 16.4132 43.3786 16.1451L52.7545 6.76917C53.2907 6.23297 53.2907 5.36406 52.7545 4.82787C52.2183 4.29167 51.3494 4.29167 50.8132 4.82787L41.4373 14.2038C40.9011 14.74 40.9011 15.6089 41.4373 16.1451C41.7054 16.4132 42.0568 16.5472 42.4077 16.5472Z" fill="#F7941D"/>
<path d="M26.6218 16.1451C26.8899 16.4132 27.2413 16.5472 27.5927 16.5472C27.9436 16.5472 28.295 16.4132 28.5631 16.1451C29.0993 15.6089 29.0993 14.74 28.5631 14.2038L19.1872 4.82787C18.651 4.29167 17.7821 4.29167 17.2459 4.82787C16.7097 5.36406 16.7097 6.23297 17.2459 6.76917L26.6218 16.1451Z" fill="#F7941D"/>
<path d="M35.0014 16.5472C35.7593 16.5472 36.374 15.9325 36.374 15.1747V7.41537C36.374 6.65755 35.7593 6.04285 35.0014 6.04285C34.2436 6.04285 33.6289 6.65755 33.6289 7.41537V15.1747C33.6289 15.9325 34.2436 16.5472 35.0014 16.5472Z" fill="#F7941D"/>
<path d="M33.7312 2.44063C33.9491 2.96881 34.4922 3.31542 35.0653 3.28551C35.6314 3.25614 36.1286 2.87375 36.3037 2.33489C36.4794 1.79175 36.2882 1.17278 35.8332 0.826709C35.3691 0.473163 34.7219 0.453403 34.2364 0.774372C33.6949 1.13219 33.485 1.84462 33.7312 2.44063Z" fill="#F7941D"/>
</g>
<defs>
<clipPath id="clip0_748_457">
<rect width="70" height="70" fill="white"/>
</clipPath>
</defs>
</svg>
