<svg width="70" height="70" viewBox="0 0 70 70" fill="none" xmlns="http://www.w3.org/2000/svg">
<path d="M64.1841 17.4434H63.4746C63.0551 15.9703 62.4692 14.5569 61.7243 13.2206L62.2287 12.7162C62.8058 12.1394 63.1233 11.3701 63.1233 10.5499C63.1233 9.72975 62.8058 8.96059 62.2283 8.38311L58.8678 5.02661C58.2907 4.44598 57.5205 4.12634 56.6988 4.12634C55.8773 4.12634 55.1069 4.44598 54.5327 5.02374L54.0289 5.52754C52.6917 4.78039 51.2778 4.19333 49.8056 3.77403V3.06461C49.8058 1.37481 48.4311 0 46.7412 0H41.99C40.3002 0 38.9254 1.37481 38.9254 3.06461V3.77403C37.4536 4.19319 36.0388 4.78039 34.6989 5.52808L34.1974 5.02661C33.6201 4.44598 32.8498 4.12634 32.0283 4.12648C31.2068 4.12648 30.4365 4.44625 29.8623 5.02388L26.5025 8.38379C25.9255 8.96059 25.6079 9.72989 25.6079 10.55C25.6079 11.3702 25.9255 12.1394 26.5024 12.7162L27.0066 13.2205C26.2586 14.5609 25.6724 15.9745 25.2553 17.4434H24.5431C22.8533 17.4434 21.4785 18.8182 21.4785 20.508V25.2632C21.4785 26.953 22.8533 28.3278 24.5431 28.3278H25.2553C25.6724 29.7965 26.2586 31.2102 27.0066 32.5507L26.5024 33.055C25.9253 33.6318 25.6077 34.4011 25.6077 35.2213C25.6077 36.0413 25.9253 36.8106 26.5023 37.3874L29.8594 40.7446C30.4365 41.3252 31.2066 41.6448 32.0281 41.6448H32.0283C32.8498 41.6448 33.6202 41.3252 34.1945 40.7474L34.6987 40.2431C36.0401 40.9915 37.4548 41.5779 38.9253 41.9948V42.7067C38.9253 44.3965 40.3001 45.7713 41.9899 45.7713H46.741C48.4308 45.7713 49.8056 44.3965 49.8056 42.7067V41.9948C51.2766 41.5777 52.6902 40.9916 54.0289 40.2436L54.5298 40.7446C55.1069 41.3252 55.8772 41.6448 56.6987 41.6448C57.5204 41.6448 58.2907 41.3251 58.8644 40.748L62.2287 37.3874C62.8056 36.8105 63.1232 36.0412 63.1232 35.2211C63.1232 34.401 62.8056 33.6318 62.2287 33.055L61.7242 32.5505C62.469 31.2143 63.0549 29.8009 63.4744 28.3278H64.184C65.8738 28.3278 67.2486 26.953 67.2486 25.2632V20.508C67.2487 18.8182 65.8741 17.4434 64.1841 17.4434ZM47.0715 42.7066C47.0715 42.8857 46.9203 43.0369 46.7412 43.0369H41.99C41.8109 43.0369 41.6597 42.8857 41.6597 42.7066V40.9316V32.3127C41.6597 31.7409 41.304 31.2296 40.7681 31.0308C37.0943 29.6683 34.626 26.1326 34.626 22.2326C34.626 19.1419 36.165 16.2446 38.7421 14.4831C38.8578 14.404 38.96 14.3395 39.0494 14.2866C39.0445 14.4643 39.0319 14.6333 39.0252 14.7215C39.015 14.8603 39.0068 14.9698 39.0068 15.0785V21.531C39.0068 24.4927 41.321 26.9661 44.275 27.162C44.3353 27.166 44.3957 27.166 44.456 27.162C47.4079 26.9663 49.7203 24.4928 49.7203 21.531V15.0785C49.7203 14.9703 49.7123 14.8615 49.7022 14.7236C49.6956 14.635 49.683 14.465 49.6782 14.2865C49.7674 14.3392 49.8691 14.4036 49.9843 14.4825C52.5621 16.2445 54.1011 19.1418 54.1011 22.2325C54.1011 26.132 51.6342 29.6679 47.9626 31.0308C47.4268 31.2297 47.0712 31.7409 47.0712 32.3125V40.9315V42.7066H47.0715ZM64.5144 25.2632C64.5144 25.4392 64.3601 25.5935 64.1841 25.5935H62.4131C61.7744 25.5935 61.2207 26.0358 61.0797 26.6588C60.6468 28.5719 59.8969 30.3809 58.8509 32.0355C58.5093 32.5758 58.5878 33.2807 59.0398 33.7327L60.2955 34.9884C60.377 35.0699 60.3892 35.1692 60.3892 35.2211C60.3892 35.2729 60.377 35.3723 60.2959 35.4533L56.9288 38.8167C56.8518 38.8941 56.7612 38.9104 56.6988 38.9104C56.6366 38.9104 56.5461 38.8941 56.4663 38.8137L55.2105 37.558C54.7579 37.1055 54.0523 37.0276 53.512 37.3699C52.345 38.1094 51.1028 38.6962 49.8058 39.1298V33.222C54.0472 31.2481 56.8357 26.9466 56.8357 22.2324C56.8357 18.238 54.8513 14.4969 51.5277 12.2251C51.0186 11.8771 49.4703 10.8186 48.1161 11.598C46.7864 12.3636 46.9189 14.1582 46.9754 14.9247C46.9803 14.9912 46.9851 15.0472 46.9862 15.0785V21.531C46.9862 23.0275 45.8424 24.2821 44.3656 24.4264C42.8868 24.282 41.7412 23.0274 41.7412 21.531L41.7411 15.0883C41.7423 15.0472 41.7472 14.9912 41.7522 14.9244C41.8092 14.1584 41.9427 12.3647 40.6141 11.5986C39.2605 10.8179 37.7099 11.8769 37.1998 12.2251C33.876 14.497 31.8917 18.2381 31.8917 22.2325C31.8917 26.9474 34.6817 31.2491 38.9254 33.2225V39.13C37.6281 38.6963 36.3844 38.1092 35.214 37.3693C34.989 37.2272 34.7358 37.1578 34.4838 37.1578C34.1307 37.1578 33.7804 37.2944 33.5167 37.5583L32.2584 38.8167C32.1814 38.8943 32.0908 38.9105 32.0284 38.9105C31.9661 38.9105 31.8757 38.8943 31.7959 38.814L28.436 35.454C28.3543 35.3725 28.3422 35.2731 28.3422 35.2213C28.3422 35.1693 28.3543 35.0701 28.436 34.9884L29.6915 33.7327C30.1435 33.2807 30.222 32.5758 29.8805 32.0355C28.8291 30.3721 28.0794 28.5639 27.6522 26.6611C27.5122 26.037 26.9579 25.5934 26.3182 25.5934H24.5434C24.3674 25.5934 24.2131 25.439 24.2131 25.2631V20.5078C24.2131 20.3287 24.3643 20.1775 24.5434 20.1775H26.3182C26.9579 20.1775 27.512 19.7339 27.6522 19.1098C28.0794 17.207 28.829 15.3987 29.8805 13.7354C30.222 13.1951 30.1435 12.4902 29.6915 12.0382L28.4358 10.7825C28.3543 10.701 28.3422 10.6017 28.3422 10.5498C28.3422 10.4978 28.3543 10.3986 28.436 10.3169L31.7987 6.95402C31.8757 6.87664 31.9662 6.86037 32.0286 6.86037C32.0909 6.86037 32.1814 6.87664 32.2612 6.95689L33.5168 8.21262C33.9691 8.66474 34.674 8.74308 35.2142 8.40156C36.8754 7.35132 38.6856 6.60007 40.594 6.169C41.2175 6.02819 41.66 5.47435 41.66 4.83548V3.06461C41.66 2.88551 41.8112 2.73431 41.9903 2.73431H46.7414C46.9205 2.73431 47.0717 2.88551 47.0717 3.06461V4.83576C47.0717 5.47476 47.5143 6.02846 48.1376 6.16928C50.0478 6.60075 51.856 7.35159 53.5123 8.40115C54.0527 8.74349 54.7582 8.66556 55.2108 8.21303L56.4693 6.95443C56.5463 6.87705 56.6369 6.86078 56.6991 6.86078C56.7614 6.86078 56.8519 6.87705 56.9323 6.95785L60.2958 10.3174C60.3773 10.3988 60.3895 10.4981 60.3895 10.55C60.3895 10.602 60.3773 10.7013 60.2957 10.7829L59.0401 12.0386C58.5881 12.4906 58.5096 13.1955 58.8511 13.7358C59.897 15.3904 60.647 17.1993 61.08 19.1125C61.221 19.7355 61.7747 20.1778 62.4134 20.1778H64.1844C64.3635 20.1778 64.5147 20.329 64.5147 20.5081V25.2632H64.5144Z" fill="#F7941D"/>
<path d="M52.3321 60.1986C51.7982 60.7325 51.7982 61.5982 52.3321 62.1322C52.5991 62.3991 52.9489 62.5327 53.2988 62.5327C53.6487 62.5327 53.9985 62.3991 54.2655 62.1322L54.2694 62.1284C54.8032 61.5945 54.8013 60.7307 54.2673 60.1968C53.7333 59.663 52.8659 59.665 52.3321 60.1986Z" fill="#F7941D"/>
<path d="M58.666 46.9549L47.812 52.5289C46.892 51.576 45.6027 50.9816 44.1767 50.9816H36.7399C36.3235 50.9816 36.2217 50.9485 36.2149 50.9461C36.1546 50.9144 35.964 50.7353 35.811 50.5915L35.7432 50.5278C29.7267 44.8641 24.6443 45.223 18.8646 47.5039C17.9295 47.8731 17.9115 47.8739 16.9724 47.9139L15.2908 47.9152C14.8117 46.4699 13.4484 45.4241 11.8446 45.4241H6.37651C4.37678 45.4241 2.75 47.0528 2.75 49.0546V63.4054C2.75 65.405 4.37678 67.0319 6.37651 67.0319H11.8446C13.4482 67.0319 14.8114 65.9873 15.2906 64.5438H18.3667C18.6384 64.5438 18.6384 64.5438 18.9543 64.6329C19.0692 64.6653 19.2089 64.7046 19.3893 64.7532L33.5386 68.5385C34.1623 68.707 34.7343 68.8728 35.2876 69.033C37.1004 69.5583 38.6242 69.9999 40.2125 69.9999C42.0075 69.9999 43.8845 69.4358 46.3532 67.7906C46.3651 67.7826 46.3769 67.7744 46.3887 67.7661L49.0899 65.8399C49.7047 65.4015 49.8477 64.5478 49.4093 63.933C48.9708 63.3181 48.1169 63.1752 47.5025 63.6136L44.8192 65.527C41.2367 67.9098 39.7155 67.4693 36.0485 66.4067C35.4836 66.2431 34.8996 66.0738 34.2487 65.898L20.0984 62.1125C19.9327 62.0679 19.8026 62.0313 19.696 62.0012C19.1798 61.8558 18.9867 61.8098 18.3669 61.8098H15.4751V50.6506H16.9525C16.9722 50.6506 16.9916 50.6502 17.0113 50.6493L17.0892 50.6461C18.2353 50.5971 18.5559 50.5658 19.8687 50.0475C24.9448 48.0444 28.863 47.8063 33.8709 52.5207L33.9386 52.5843C34.7944 53.3886 35.2873 53.7161 36.74 53.7161H44.1768C45.0496 53.7161 45.8107 54.2007 46.2074 54.9144C46.2117 54.9224 46.2166 54.9299 46.221 54.9378C46.3981 55.2655 46.499 55.6404 46.499 56.0385C46.499 57.3169 45.4574 58.3569 44.1769 58.3569H32.1245C31.3696 58.3569 30.7574 58.969 30.7574 59.7241C30.7574 60.4792 31.3696 61.0912 32.1245 61.0912H44.1769C46.9651 61.0912 49.2333 58.8246 49.2333 56.0385C49.2333 55.6598 49.1901 55.2912 49.1108 54.9362L59.9152 49.3876C60.9378 48.8626 62.3361 48.9189 63.0304 50.0455C63.6445 51.0384 63.3067 52.3583 62.2451 53.1151L57.5056 56.4906C56.8905 56.9287 56.7469 57.7823 57.185 58.3974C57.4517 58.7719 57.8725 58.9716 58.2998 58.9716C58.5741 58.9716 58.8511 58.8892 59.0916 58.718L63.8317 55.3421C66.0828 53.7372 66.738 50.8418 65.3569 48.6091C63.9987 46.405 61.1225 45.6938 58.666 46.9549ZM12.7406 63.4054C12.7406 63.8891 12.3303 64.2976 11.8446 64.2976H6.37651C5.89281 64.2976 5.48431 63.889 5.48431 63.4054V49.0547C5.48431 48.5606 5.88461 48.1585 6.37651 48.1585H11.8446C12.3303 48.1585 12.7406 48.5688 12.7406 49.0547V63.4054Z" fill="#F7941D"/>
</svg>
