<svg width="65" height="65" viewBox="0 0 65 65" fill="none" xmlns="http://www.w3.org/2000/svg">
<g clip-path="url(#clip0_748_463)">
<path d="M44.1822 19.6966C43.4801 19.6966 42.9102 20.2639 42.9102 20.9656C42.9102 21.6668 43.4801 22.2352 44.1822 22.2352C44.8858 22.2352 45.4542 21.6668 45.4542 20.9656C45.4542 20.2639 44.8858 19.6966 44.1822 19.6966Z" fill="#F7941D"/>
<path d="M21.0689 42.7629C20.3653 42.7629 19.7969 43.3317 19.7969 44.0325C19.7969 44.7347 20.3653 45.302 21.0689 45.302C21.771 45.302 22.3409 44.7347 22.3409 44.0325C22.3409 43.3317 21.771 42.7629 21.0689 42.7629Z" fill="#F7941D"/>
<path d="M63.6071 7.80998C63.1778 7.7103 62.7267 7.83973 62.4166 8.15216L57.1432 13.4569H54.6151L51.8321 10.5791V8.02074L57.0299 2.75565C57.3375 2.44422 57.4627 1.99641 57.3608 1.57043C57.2595 1.14493 56.9455 0.801764 56.5301 0.661918C55.2243 0.22254 53.8578 -0.000123698 52.4681 -0.000123698C48.3251 -0.000123698 44.5612 1.92798 42.1414 5.28976C39.8766 8.43681 39.1785 12.2935 40.1787 15.9846L30.809 25.336L15.199 9.72072V6.65599C15.199 6.21017 14.9645 5.79658 14.5814 5.56747L5.58732 0.180884C5.08647 -0.119142 4.44599 -0.0402925 4.03357 0.37181L0.436155 3.96171C0.0237432 4.37381 -0.0552608 5.01304 0.244855 5.51292L5.64098 14.4894C5.87054 14.8717 6.28445 15.1053 6.73114 15.1058L9.80087 15.1068L25.4124 30.7221L16.0785 40.0377C12.3802 39.04 8.51395 39.7377 5.35925 41.9996C1.99288 44.4132 0.0625 48.1687 0.0625 52.3036C0.0625 53.6902 0.2856 55.0544 0.725836 56.3572C0.866454 56.7742 1.21377 57.0891 1.64308 57.1883C2.07288 57.288 2.52355 57.1586 2.8341 56.8461L8.10701 51.5419H10.649L13.5454 54.4325V56.9696L8.23073 62.2322C7.91769 62.5422 7.78801 62.992 7.88788 63.4209C7.98726 63.8494 8.30278 64.196 8.72065 64.3364C10.026 64.7758 11.3929 64.9984 12.7822 64.9984C16.9252 64.9984 20.6875 63.0713 23.1064 59.7115C25.3726 56.563 26.0717 52.7048 25.072 49.0137L32.5685 41.5319L34.2857 43.3936L33.4976 44.1796C33.0008 44.6755 33.0008 45.4794 33.4976 45.9753C33.9945 46.4707 34.7995 46.4707 35.2968 45.9753L36.0104 45.2632L52.1222 62.7301C52.1342 62.743 52.1466 62.7554 52.159 62.7678C55.1403 65.7433 59.9705 65.7443 62.9532 62.7673C65.9276 59.7973 65.9276 54.9647 62.9532 51.9946C62.9403 51.9818 62.9269 51.9694 62.9135 51.957L45.385 35.9073L46.0906 35.2031C46.5875 34.7077 46.5875 33.9038 46.0906 33.4079C45.5937 32.912 44.7888 32.912 44.2914 33.4079L43.5088 34.1895L41.64 32.4776L49.1727 24.9596C50.2435 25.2452 51.3486 25.39 52.4681 25.39C59.482 25.39 65.1877 19.695 65.1877 12.6952C65.1877 11.3081 64.9646 9.94438 64.5244 8.64112C64.3838 8.22406 64.0364 7.90916 63.6071 7.80998ZM11.2289 12.9407C10.9904 12.7021 10.6669 12.5806 10.3291 12.5806L7.45212 12.5796L2.93745 5.05668L5.13019 2.86823L12.655 7.37506V10.2464C12.655 10.5826 12.7886 10.905 13.0266 11.143L29.0103 27.1317L27.2111 28.9269L11.2289 12.9407ZM43.5843 37.7045L61.1724 53.8082C63.1371 55.7899 63.1311 58.9984 61.154 60.9726C59.1725 62.9503 55.9646 62.9563 53.9751 60.99L37.8106 43.466L43.5843 37.7045ZM41.7081 35.9861L36.0859 41.5964L34.3687 39.7347L39.8393 34.2743L41.7081 35.9861ZM52.4681 22.851C51.3555 22.851 50.2614 22.6729 49.217 22.3218C48.7593 22.1686 48.2535 22.2866 47.9117 22.6273C41.5347 28.9918 27.7939 42.7052 22.7342 47.7556C22.3923 48.0968 22.2736 48.6016 22.4281 49.0589C23.4855 52.1925 22.9797 55.535 21.0398 58.2302C19.1055 60.9176 16.0954 62.4594 12.7822 62.4594C12.41 62.4594 12.0398 62.439 11.6731 62.3999L15.7133 58.3988C15.9538 58.1608 16.0894 57.8365 16.0894 57.4978V53.9064C16.0894 53.5697 15.9552 53.2468 15.7167 53.0088L12.0751 49.3743C11.8366 49.1362 11.5131 49.0023 11.1757 49.0023H7.57733C7.23796 49.0023 6.913 49.1377 6.674 49.3777L2.66566 53.41C2.62591 53.044 2.60603 52.6745 2.60603 52.3031C2.60603 48.9959 4.15034 45.9921 6.84344 44.0616C9.54349 42.1255 12.893 41.6202 16.0333 42.676C16.4909 42.8302 16.9967 42.7117 17.3386 42.3705C17.4086 42.3011 42.4981 17.2601 42.516 17.2422C42.8579 16.901 42.9761 16.3967 42.8221 15.9394C41.7642 12.8058 42.2691 9.46434 44.2074 6.77104C46.1433 4.08122 49.1539 2.53894 52.4676 2.53894C52.8512 2.53894 53.2323 2.56026 53.6099 2.60192L49.6537 6.60938C49.4192 6.84692 49.288 7.16678 49.288 7.50003V11.0914C49.288 11.4207 49.4157 11.7366 49.6448 11.9731L53.1592 15.6077C53.3987 15.8556 53.7291 15.9955 54.0745 15.9955H57.6729C58.0118 15.9955 58.3367 15.8606 58.5757 15.6201L62.5841 11.5883C62.6238 11.9543 62.6437 12.3238 62.6437 12.6952C62.6437 18.295 58.0788 22.851 52.4681 22.851Z" fill="#F7941D"/>
<path d="M39.6844 23.6584L23.7668 39.5449C23.2704 40.0404 23.2704 40.8442 23.7668 41.3401C24.2637 41.836 25.0691 41.836 25.566 41.3401L41.4836 25.4536C41.9805 24.9582 41.9805 24.1543 41.4836 23.6584C40.9867 23.1625 40.1813 23.1625 39.6844 23.6584Z" fill="#F7941D"/>
<path d="M55.7574 57.3829C56.2543 57.8773 57.0597 57.8773 57.5566 57.3799C58.0525 56.8835 58.051 56.0796 57.5536 55.5847L46.0881 44.1782C45.5907 43.6833 44.7848 43.6848 44.2894 44.1812C43.793 44.6781 43.7945 45.4815 44.2919 45.9764L55.7574 57.3829Z" fill="#F7941D"/>
</g>
<defs>
<clipPath id="clip0_748_463">
<rect width="65" height="65" fill="white"/>
</clipPath>
</defs>
</svg>
