<svg width="61" height="60" viewBox="0 0 61 60" fill="none" xmlns="http://www.w3.org/2000/svg">
<path d="M60.4422 34.4143C60.3154 33.8966 59.8389 33.5312 59.2907 33.5312C57.6791 33.5312 54.7876 32.7522 52.3424 31.7205V26.7348C52.3424 24.8342 50.7496 23.288 48.7918 23.288H46.4247V2.60689C46.4247 1.33986 45.3628 0.309052 44.0576 0.309052H8.55138C7.24618 0.309052 6.1843 1.33986 6.1843 2.60689V16.3945H2.63368C1.32847 16.3945 0.266602 17.4253 0.266602 18.6924V52.0112C0.266602 53.9117 1.85941 55.4579 3.81722 55.4579H42.2604C43.6526 56.7069 45.3024 57.8989 47.2585 58.9829C47.4403 59.0837 47.6428 59.134 47.8453 59.134C48.0478 59.134 48.2502 59.0836 48.4321 58.9829C56.6228 54.444 59.4576 48.0126 60.3934 43.4165C61.405 38.4484 60.4819 34.5768 60.4422 34.4143ZM8.55138 2.60689H44.0576V23.288H23.5552L21.5714 18.4736C21.051 17.2106 19.8485 16.3944 18.508 16.3944H8.55138V2.60689ZM2.63368 52.0112V50.8621H8.78762C9.44129 50.8621 9.97116 50.3478 9.97116 49.7132C9.97116 49.0787 9.44129 48.5643 8.78762 48.5643H2.63368V18.6924H18.508C18.9254 18.6924 19.2435 19.0111 19.3737 19.327L21.6552 24.8637C21.835 25.2999 22.2702 25.5859 22.7541 25.5859H48.792C49.4446 25.5859 49.9755 26.1013 49.9755 26.7348V30.5436C49.4509 30.2283 49.0049 29.9082 48.6775 29.5939C48.2164 29.1512 47.4744 29.1512 47.0131 29.5939C45.072 31.4572 39.0299 33.5311 36.3997 33.5311C35.8516 33.5311 35.3751 33.8965 35.2483 34.4142C35.2085 34.5766 34.2855 38.4483 35.2971 43.4164C35.8754 46.2567 37.1798 49.7978 40.0243 53.1601H3.81722C3.16462 53.1601 2.63368 52.6447 2.63368 52.0112ZM58.0712 42.9709C56.8897 48.773 53.4509 53.3732 47.8452 56.6531C42.2704 53.3911 38.8379 48.8216 37.638 43.0621C36.9665 39.839 37.2089 37.0832 37.403 35.7689C40.4567 35.4353 45.2796 33.7615 47.8453 31.9118C50.4114 33.7619 55.2359 35.436 58.2895 35.7691C58.4829 37.0661 58.723 39.7698 58.0712 42.9709Z" fill="#D9D9D9"/>
<path d="M12.8714 7.20209H39.7377C40.3913 7.20209 40.9212 6.68772 40.9212 6.05317C40.9212 5.41862 40.3913 4.90425 39.7377 4.90425H12.8714C12.2178 4.90425 11.6879 5.41862 11.6879 6.05317C11.6879 6.68772 12.2178 7.20209 12.8714 7.20209Z" fill="#D9D9D9"/>
<path d="M40.9212 10.6489C40.9212 10.0143 40.3913 9.49993 39.7377 9.49993H12.8714C12.2178 9.49993 11.6879 10.0143 11.6879 10.6489C11.6879 11.2834 12.2178 11.7978 12.8714 11.7978H39.7377C40.3912 11.7978 40.9212 11.2834 40.9212 10.6489Z" fill="#D9D9D9"/>
<path d="M39.7377 14.0956H26.3045C25.6508 14.0956 25.121 14.61 25.121 15.2445C25.121 15.8791 25.6508 16.3935 26.3045 16.3935H39.7377C40.3914 16.3935 40.9212 15.8791 40.9212 15.2445C40.9212 14.61 40.3912 14.0956 39.7377 14.0956Z" fill="#D9D9D9"/>
<path d="M39.7377 18.6913H32.7548C32.1011 18.6913 31.5712 19.2057 31.5712 19.8402C31.5712 20.4748 32.1011 20.9891 32.7548 20.9891H39.7377C40.3913 20.9891 40.9212 20.4748 40.9212 19.8402C40.9212 19.2057 40.3912 18.6913 39.7377 18.6913Z" fill="#D9D9D9"/>
<path d="M52.2664 37.9469C51.318 37.9469 50.4265 38.3054 49.7559 38.9564L46.4893 42.1274L45.9342 41.5886C45.2636 40.9376 44.3721 40.5792 43.4237 40.5792C42.4753 40.5792 41.5838 40.9377 40.9133 41.5886C40.2427 42.2396 39.8733 43.1051 39.8733 44.0257C39.8733 44.9463 40.2427 45.8118 40.9132 46.4628L43.9788 49.4387C44.6709 50.1106 45.5801 50.4464 46.4892 50.4464C47.3983 50.4464 48.3076 50.1105 48.9997 49.4387L54.7768 43.8306C56.1611 42.4868 56.1611 40.3002 54.7768 38.9565C54.1065 38.3054 53.2149 37.9469 52.2664 37.9469ZM53.1032 42.2056L47.3262 47.8137C46.8649 48.2615 46.1141 48.2614 45.6528 47.8137L42.5872 44.8377C42.3636 44.6208 42.2406 44.3323 42.2406 44.0256C42.2406 43.7187 42.3637 43.4303 42.5872 43.2134C42.8106 42.9964 43.1078 42.877 43.4238 42.877C43.7398 42.877 44.037 42.9965 44.2605 43.2134L45.6524 44.5646C45.8744 44.7801 46.1754 44.9012 46.4893 44.9012C46.8032 44.9012 47.1043 44.7801 47.3262 44.5646L51.4296 40.5812C51.6531 40.3642 51.9503 40.2448 52.2663 40.2448C52.5824 40.2448 52.8795 40.3643 53.1029 40.5812C53.5645 41.0291 53.5645 41.7577 53.1032 42.2056Z" fill="#D9D9D9"/>
<path d="M14.1132 48.5637C13.4596 48.5637 12.9297 49.0781 12.9297 49.7126C12.9297 50.3472 13.4596 50.8616 14.1132 50.8616H14.1141C14.7678 50.8616 15.2973 50.3472 15.2973 49.7126C15.2973 49.0781 14.7669 48.5637 14.1132 48.5637Z" fill="#D9D9D9"/>
</svg>
