<svg width="30" height="24" viewBox="0 0 30 24" fill="none" xmlns="http://www.w3.org/2000/svg">
<path d="M29.0625 22.0901H28.461V0.954946C28.461 0.427581 28.0412 0 27.5235 0H21.8051C21.2874 0 20.8676 0.427581 20.8676 0.954946V22.0901H18.7969V5.4112C18.7969 4.88384 18.3772 4.45626 17.8594 4.45626H12.141C11.6233 4.45626 11.2035 4.88384 11.2035 5.4112V22.0901H9.13284V9.86769C9.13284 9.34033 8.71307 8.91275 8.19534 8.91275H2.47696C1.95923 8.91275 1.53946 9.34033 1.53946 9.86769V22.0901H0.9375C0.419769 22.0901 0 22.5177 0 23.0451C0 23.5724 0.419769 24 0.9375 24H29.0625C29.5802 24 30 23.5724 30 23.0451C30 22.5177 29.5802 22.0901 29.0625 22.0901ZM22.7424 1.90989H26.5858V22.0901H22.7424V1.90989ZM13.0785 22.0901V6.36615H16.9219V22.0901H13.0785ZM3.41446 10.8226H7.25784V22.0901H3.41446V10.8226Z" fill="white"/>
</svg>
