<svg width="20" height="20" viewBox="0 0 20 20" fill="none" xmlns="http://www.w3.org/2000/svg">
<path d="M9.69105 13.4073C9.11922 13.4073 8.65625 13.8839 8.65625 14.4558C8.65625 15.014 9.10558 15.5042 9.69105 15.5042C10.2765 15.5042 10.7395 15.0141 10.7395 14.4558C10.7395 13.8839 10.263 13.4073 9.69105 13.4073Z" fill="#F7941D"/>
<path d="M9.86984 5.46887C8.03168 5.46887 7.1875 6.55813 7.1875 7.2934C7.1875 7.82445 7.6368 8.06953 8.00445 8.06953C8.73969 8.06953 8.44016 7.0211 9.82898 7.0211C10.5098 7.0211 11.0545 7.32067 11.0545 7.94699C11.0545 8.6823 10.292 9.10437 9.84262 9.48562C9.44777 9.82601 8.93035 10.3843 8.93035 11.5553C8.93035 12.2633 9.12094 12.4675 9.67922 12.4675C10.3464 12.4675 10.4825 12.168 10.4825 11.9093C10.4825 11.2012 10.4962 10.7928 11.2451 10.2073C11.6127 9.92137 12.7701 8.99547 12.7701 7.71555C12.7701 6.43563 11.6127 5.46887 9.86984 5.46887Z" fill="#F7941D"/>
<path d="M10 0C4.47328 0 0 4.47254 0 10V19.2188C0 19.6502 0.349766 20 0.78125 20H10C15.5267 20 20 15.5275 20 10C20 4.47328 15.5275 0 10 0ZM10 18.4375H1.5625V10C1.5625 5.33684 5.33621 1.5625 10 1.5625C14.6632 1.5625 18.4375 5.33621 18.4375 10C18.4375 14.6632 14.6638 18.4375 10 18.4375Z" fill="#F7941D"/>
</svg>
