<svg width="59" height="59" viewBox="0 0 59 59" fill="none" xmlns="http://www.w3.org/2000/svg">
<g clip-path="url(#clip0_840_19)">
<path d="M57.7327 1.05223H14.1021C13.402 1.05223 12.8347 1.61949 12.8347 2.31957V27.5147H1.26733C0.567259 27.5147 0 28.0819 0 28.782V50.263C0 54.5003 3.44715 57.948 7.68461 57.948C7.79377 57.948 51.3152 57.948 51.3152 57.948C55.5525 57.948 59.0002 54.5005 59.0002 50.263V2.31957C59 1.61949 58.4327 1.05223 57.7327 1.05223ZM2.53467 50.263V30.0494H12.8347V50.263C12.8347 53.1027 10.5245 55.4133 7.68444 55.4133C4.84494 55.4133 2.53467 53.1027 2.53467 50.263ZM56.4653 50.263C56.4653 53.1027 54.1551 55.4133 51.3151 55.4133H13.3836C14.6169 54.0496 15.3694 52.2422 15.3694 50.263V3.5869H56.4653V50.263Z" fill="#F7941D"/>
<path d="M34.1365 15.6905H50.3798C51.0799 15.6905 51.6471 15.1232 51.6471 14.4231C51.6471 13.7231 51.0799 13.1558 50.3798 13.1558H34.1365C33.4364 13.1558 32.8691 13.7231 32.8691 14.4231C32.8691 15.1232 33.4366 15.6905 34.1365 15.6905Z" fill="#F7941D"/>
<path d="M34.1365 29.613H50.3798C51.0799 29.613 51.6471 29.0458 51.6471 28.3457C51.6471 27.6456 51.0799 27.0784 50.3798 27.0784H34.1365C33.4364 27.0784 32.8691 27.6456 32.8691 28.3457C32.8691 29.0458 33.4366 29.613 34.1365 29.613Z" fill="#F7941D"/>
<path d="M34.1365 43.536H50.3798C51.0799 43.536 51.6471 42.9687 51.6471 42.2686C51.6471 41.5686 51.0799 41.0013 50.3798 41.0013H34.1365C33.4364 41.0013 32.8691 41.5686 32.8691 42.2686C32.8691 42.9685 33.4366 43.536 34.1365 43.536Z" fill="#F7941D"/>
<path d="M22.4431 17.1166C22.6827 17.3701 23.0161 17.5137 23.3645 17.5137C23.3679 17.5137 23.3715 17.5137 23.3752 17.5137C23.7277 17.5107 24.0629 17.3613 24.3007 17.1009L31.2621 9.47645C31.734 8.95955 31.6974 8.15792 31.1806 7.68596C30.6637 7.21434 29.8621 7.25067 29.3901 7.76741L23.3488 14.3839L21.4683 12.3925C20.9874 11.8835 20.1851 11.8609 19.6764 12.3413C19.1675 12.8219 19.1448 13.6238 19.6252 14.1328L22.4431 17.1166Z" fill="#F7941D"/>
<path d="M29.3901 22.2951L23.3488 28.9113L21.4679 26.9202C20.9874 26.4109 20.185 26.3883 19.6764 26.869C19.1675 27.3496 19.1448 28.1516 19.6252 28.6605L22.4431 31.644C22.6827 31.8975 23.0161 32.0411 23.3645 32.0411C23.3679 32.0411 23.3715 32.0411 23.3752 32.0411C23.7277 32.0381 24.0629 31.8887 24.3007 31.6283L31.2621 24.0042C31.7337 23.4873 31.6973 22.6856 31.1806 22.2137C30.6639 21.7417 29.8621 21.7781 29.3901 22.2951Z" fill="#F7941D"/>
<path d="M29.3901 36.8227L23.3488 43.4388L21.4679 41.4477C20.9874 40.9384 20.185 40.9156 19.6764 41.3965C19.1675 41.8771 19.1448 42.6791 19.6252 43.1881L22.4431 46.1715C22.6827 46.425 23.0161 46.5686 23.3645 46.5686C23.3679 46.5686 23.3715 46.5686 23.3752 46.5686C23.7277 46.5656 24.0629 46.4162 24.3007 46.1558L31.2621 38.5317C31.7337 38.0148 31.6973 37.2132 31.1806 36.7412C30.6637 36.2693 29.8621 36.3057 29.3901 36.8227Z" fill="#F7941D"/>
</g>
<defs>
<clipPath id="clip0_840_19">
<rect width="59" height="59" fill="white"/>
</clipPath>
</defs>
</svg>
