<svg width="79" height="79" viewBox="0 0 79 79" fill="none" xmlns="http://www.w3.org/2000/svg">
<g clip-path="url(#clip0_734_1479)">
<path d="M76.638 25.6026V11.582C77.4916 10.7607 78.0242 9.60807 78.0242 8.33281C78.0242 5.84493 76.0003 3.82101 73.5124 3.82101C72.2372 3.82101 71.0846 4.3538 70.2633 5.20722H35.7995C34.076 5.20722 32.6739 6.60931 32.6739 8.33281C32.6739 10.0563 34.076 11.4584 35.7995 11.4584H35.9808V21.8458H34.7602C33.6966 21.8458 32.8314 22.711 32.8314 23.7745V28.3729C32.8314 29.4365 33.6966 30.3016 34.7602 30.3016H44.2398C45.3034 30.3016 46.1686 29.4365 46.1686 28.3729V23.7745C46.1686 22.711 45.3034 21.8458 44.2398 21.8458H43.0192V11.4584H56.3184C56.9576 11.4584 57.4756 10.9404 57.4756 10.3012C57.4756 9.66192 56.9576 9.14395 56.3184 9.14395H35.7997C35.3525 9.14395 34.9885 8.78012 34.9885 8.33281C34.9885 7.8855 35.3523 7.52167 35.7997 7.52167H69.0752C69.0272 7.78506 69.0008 8.05585 69.0008 8.33281C69.0008 8.60993 69.0273 8.88056 69.0755 9.14395H61.7188C61.0795 9.14395 60.5615 9.66192 60.5615 10.3012C60.5615 10.9404 61.0795 11.4584 61.7188 11.4584H70.2645C70.3048 11.5002 70.345 11.5419 70.3868 11.582V25.6026C69.0574 25.7699 68.0249 26.9052 68.0249 28.2792V36.1752H54.2823C53.3889 36.1752 52.6621 36.902 52.6621 37.7953V52.0792H48.924V37.7953C48.924 36.902 48.1973 36.1752 47.3039 36.1752H31.696C30.8026 36.1752 30.0759 36.902 30.0759 37.7953V52.0792H26.3377V46.9063C26.3377 46.267 25.8197 45.749 25.1805 45.749C24.5412 45.749 24.0233 46.267 24.0233 46.9063V52.0792H9.80387V38.4897H24.0233V41.5059C24.0233 42.1451 24.5412 42.6631 25.1805 42.6631C25.8197 42.6631 26.3377 42.1451 26.3377 41.5059V37.7953C26.3377 36.902 25.611 36.1752 24.7176 36.1752H9.10953C8.21615 36.1752 7.48942 36.902 7.48942 37.7953V52.1122C3.29933 52.4754 0 55.9999 0 60.2824V61.3071C0 65.0326 2.49714 68.1838 5.90494 69.1803V73.2503C5.90494 74.3139 6.77008 75.179 7.83365 75.179H54.1582C54.7975 75.179 55.3154 74.661 55.3154 74.0218C55.3154 73.3825 54.7975 72.8645 54.1582 72.8645H8.21939V69.5103H70.7806V72.8645H59.5586C58.9193 72.8645 58.4014 73.3825 58.4014 74.0218C58.4014 74.661 58.9193 75.179 59.5586 75.179H71.1664C72.2299 75.179 73.0951 74.3139 73.0951 73.2503V69.1803C76.5029 68.1838 79 65.0326 79 61.3071V28.2792C79 26.9052 77.9674 25.7699 76.638 25.6026ZM43.8541 27.9871H35.1459V24.1603H43.8541V27.9871ZM40.7048 21.8458H38.2954V11.4584H40.7048V21.8458ZM74.3236 25.579H72.7013V12.7702C72.9647 12.8182 73.2355 12.8446 73.5124 12.8446C73.7894 12.8446 74.0602 12.8182 74.3236 12.7702V25.579ZM75.7099 8.33281C75.7099 9.5445 74.7241 10.5302 73.5126 10.5302C72.301 10.5302 71.3152 9.54435 71.3152 8.33281C71.3152 7.12127 72.301 6.13547 73.5126 6.13547C74.7241 6.13547 75.7099 7.12112 75.7099 8.33281ZM60.734 38.4897H63.4387V43.4238H60.734V38.4897ZM54.9767 38.4897H58.4196V44.1181C58.4196 45.0115 59.1463 45.7382 60.0397 45.7382H64.133C65.0264 45.7382 65.7532 45.0115 65.7532 44.1181V38.4897H69.196V52.0792H54.9766V38.4897H54.9767ZM38.1476 38.4897H40.8523V43.4238H38.1476V38.4897ZM32.3903 38.4897H35.8331V44.1181C35.8331 45.0115 36.5599 45.7382 37.4533 45.7382H41.5466C42.44 45.7382 43.1667 45.0115 43.1667 44.1181V38.4897H46.6095V52.0792H32.3902V38.4897H32.3903ZM76.6855 61.3071C76.6855 64.5541 74.0438 67.1958 70.7968 67.1958H8.20319C4.95617 67.1958 2.31445 64.5541 2.31445 61.3071V60.2824C2.31445 57.0354 4.95617 54.3937 8.20319 54.3937H70.7968C74.0438 54.3937 76.6855 57.0354 76.6855 60.2824V61.3071ZM76.6855 54.5815C75.3487 53.2019 73.5343 52.2877 71.5106 52.1122V37.7953C71.5106 37.0578 71.0148 36.4352 70.3395 36.2399V28.2792C70.3395 28.0665 70.5124 27.8935 70.7252 27.8935H76.2998C76.5126 27.8935 76.6855 28.0665 76.6855 28.2792V54.5815Z" fill="#373432"/>
<path d="M9.2364 56.283C6.74852 56.283 4.72461 58.3069 4.72461 60.7948C4.72461 63.2827 6.74852 65.3066 9.2364 65.3066C11.7243 65.3066 13.7482 63.2827 13.7482 60.7948C13.7482 58.3069 11.7243 56.283 9.2364 56.283ZM9.2364 62.9922C8.02471 62.9922 7.03906 62.0063 7.03906 60.7948C7.03906 59.5833 8.02486 58.5975 9.2364 58.5975C10.4479 58.5975 11.4337 59.5833 11.4337 60.7948C11.4337 62.0063 10.4481 62.9922 9.2364 62.9922Z" fill="#373432"/>
<path d="M33.4473 56.283C30.9595 56.283 28.9355 58.3069 28.9355 60.7948C28.9355 63.2827 30.9595 65.3066 33.4473 65.3066C35.9352 65.3066 37.9591 63.2827 37.9591 60.7948C37.9591 58.3069 35.9354 56.283 33.4473 56.283ZM33.4473 62.9922C32.2356 62.9922 31.25 62.0063 31.25 60.7948C31.25 59.5833 32.2358 58.5975 33.4473 58.5975C34.6589 58.5975 35.6447 59.5833 35.6447 60.7948C35.6447 62.0063 34.659 62.9922 33.4473 62.9922Z" fill="#373432"/>
<path d="M45.5528 56.283C43.0649 56.283 41.041 58.3069 41.041 60.7948C41.041 63.2827 43.0649 65.3066 45.5528 65.3066C48.0407 65.3066 50.0646 63.2827 50.0646 60.7948C50.0646 58.3069 48.0407 56.283 45.5528 56.283ZM45.5528 62.9922C44.3411 62.9922 43.3555 62.0063 43.3555 60.7948C43.3555 59.5833 44.3413 58.5975 45.5528 58.5975C46.7643 58.5975 47.7501 59.5833 47.7501 60.7948C47.7501 62.0063 46.7643 62.9922 45.5528 62.9922Z" fill="#373432"/>
<path d="M57.6583 56.283C55.1704 56.283 53.1465 58.3069 53.1465 60.7948C53.1465 63.2827 55.1704 65.3066 57.6583 65.3066C60.1462 65.3066 62.1701 63.2827 62.1701 60.7948C62.1701 58.3069 60.1462 56.283 57.6583 56.283ZM57.6583 62.9922C56.4466 62.9922 55.4609 62.0063 55.4609 60.7948C55.4609 59.5833 56.4467 58.5975 57.6583 58.5975C58.8698 58.5975 59.8556 59.5833 59.8556 60.7948C59.8556 62.0063 58.8698 62.9922 57.6583 62.9922Z" fill="#373432"/>
<path d="M21.3419 56.283C18.854 56.283 16.8301 58.3069 16.8301 60.7948C16.8301 63.2827 18.854 65.3066 21.3419 65.3066C23.8298 65.3066 25.8537 63.2827 25.8537 60.7948C25.8537 58.3069 23.8298 56.283 21.3419 56.283ZM21.3419 62.9922C20.1302 62.9922 19.1445 62.0063 19.1445 60.7948C19.1445 59.5833 20.1303 58.5975 21.3419 58.5975C22.5534 58.5975 23.5392 59.5833 23.5392 60.7948C23.5392 62.0063 22.5536 62.9922 21.3419 62.9922Z" fill="#373432"/>
<path d="M69.7637 56.283C67.2759 56.283 65.252 58.3069 65.252 60.7948C65.252 63.2827 67.2759 65.3066 69.7637 65.3066C72.2516 65.3066 74.2755 63.2827 74.2755 60.7948C74.2755 58.3069 72.2516 56.283 69.7637 56.283ZM69.7637 62.9922C68.5521 62.9922 67.5664 62.0063 67.5664 60.7948C67.5664 59.5833 68.5522 58.5975 69.7637 58.5975C70.9753 58.5975 71.9611 59.5833 71.9611 60.7948C71.9611 62.0063 70.9753 62.9922 69.7637 62.9922Z" fill="#373432"/>
</g>
<defs>
<clipPath id="clip0_734_1479">
<rect width="79" height="79" fill="white"/>
</clipPath>
</defs>
</svg>
