<svg width="20" height="22" viewBox="0 0 20 22" fill="none" xmlns="http://www.w3.org/2000/svg">
<path d="M4.57107 22C3.35786 22 2.21726 21.5275 1.35942 20.6697C-0.411474 18.8988 -0.411474 16.0173 1.35942 14.2464L11.5502 4.0556C12.7526 2.85317 14.7092 2.85317 15.9116 4.0556C17.114 5.25803 17.114 7.21457 15.9116 8.417L8.41566 15.9129C8.11785 16.2108 7.6349 16.2108 7.33704 15.9129C7.03918 15.615 7.03918 15.1322 7.33704 14.8343L14.8329 7.33833C15.4406 6.73066 15.4406 5.74189 14.8329 5.13422C14.5385 4.83982 14.1472 4.67772 13.7309 4.67772C13.3146 4.67772 12.9232 4.83982 12.6288 5.13422L2.43804 15.325C1.2619 16.5012 1.2619 18.4149 2.43804 19.5911C3.00783 20.1608 3.76535 20.4746 4.57107 20.4746C5.37679 20.4746 6.13436 20.1608 6.7041 19.5911L17.1341 9.16109C17.9792 8.31597 18.4446 7.19235 18.4446 5.99714C18.4446 4.80194 17.9792 3.67832 17.1341 2.83319C15.3894 1.08853 12.5507 1.08858 10.8061 2.83319L3.07103 10.5682C2.77322 10.8661 2.29028 10.8661 1.99242 10.5682C1.69456 10.2704 1.69456 9.78748 1.99242 9.48962L9.72751 1.75452C12.0669 -0.584842 15.8733 -0.584842 18.2127 1.75452C19.346 2.88775 19.9701 4.3945 19.9701 5.99714C19.9701 7.59979 19.346 9.10649 18.2127 10.2398L7.78272 20.6697C6.92488 21.5276 5.78428 22 4.57107 22Z" fill="#F7941D"/>
</svg>
