<svg width="130" height="130" viewBox="0 0 130 130" fill="none" xmlns="http://www.w3.org/2000/svg">
<g clip-path="url(#clip0_748_252)">
<path d="M113.373 106.434V100.33C116.918 97.7757 119.022 93.6531 119.022 89.2176C119.022 84.9258 117 80.8379 113.618 78.2859C112.851 77.7039 111.84 77.6085 110.977 78.0366C110.106 78.469 109.564 79.3442 109.564 80.3207V86.6912C109.564 86.7643 109.519 86.7953 109.501 86.7953H104.253C104.231 86.7953 104.189 86.7585 104.189 86.6912V80.3207C104.189 79.3457 103.649 78.471 102.78 78.0381C101.919 77.6092 100.908 77.7029 100.139 78.2831C97.047 80.6185 95.098 84.2306 94.7819 88.1062L73.6901 81.009C72.4554 80.5939 71.6256 79.4396 71.6256 78.1371V78.1356C79.0778 73.9355 84.292 66.2129 84.9897 57.2419C88.5081 57.1792 91.4684 54.1478 91.4684 50.6162C91.4684 48.6741 90.6046 46.8632 89.1926 45.6257C89.7045 44.605 89.9945 43.4548 89.9945 42.2373C89.9945 38.7123 87.5773 35.7414 84.3133 34.8943V26.5154C84.3133 17.3002 78.1076 9.31506 69.3481 6.95475C69.2148 3.0974 66.0374 0 62.1483 0H55.3314C51.4421 0 48.2647 3.0974 48.1314 6.95475C39.3719 9.31506 33.1662 17.3004 33.1662 26.5154V34.8943C29.9022 35.7411 27.485 38.7121 27.485 42.2373C27.485 43.4548 27.775 44.605 28.2869 45.6257C26.8749 46.8632 26.0111 48.6741 26.0111 50.6162C26.0111 54.1526 28.9371 57.1825 32.4898 57.2419C33.1875 66.2129 38.4017 73.9355 45.8539 78.1356V78.1371C45.8539 79.4396 45.0241 80.5939 43.7891 81.0093L22.3594 88.2202C15.4181 90.5691 11.1043 96.819 10.9766 104.06V128.096C10.9766 129.147 11.8292 130 12.8809 130H12.8816C13.9333 130 14.7859 129.147 14.7859 128.096V104.061C14.8715 99.6877 17.0208 95.5632 20.7497 93.1846L26.2277 99.2971C28.0612 101.344 29.0709 103.983 29.0709 106.731V128.096C29.0709 129.147 29.9236 130 30.9752 130C32.0269 130 32.8795 129.147 32.8795 128.096V122.259H56.8353V128.096C56.8353 129.147 57.6879 130 58.7396 130C59.7913 130 60.6439 129.147 60.6439 128.096V122.259H84.6V128.096C84.6 129.147 85.4526 130 86.5043 130C87.556 130 88.4086 129.147 88.4086 128.096V106.732C88.4086 103.983 89.4181 101.342 91.2511 99.2966L95.7094 94.3226C96.6567 96.7083 98.2581 98.803 100.38 100.33V105.806C97.4288 105.482 94.7801 107.659 94.7798 110.651V125.155C94.7798 127.827 96.9533 130 99.6249 130H110.1C114.993 130 118.974 126.02 118.974 121.127V114.68C118.974 110.943 116.65 107.74 113.373 106.434ZM87.6598 50.6162C87.6598 52.0574 86.5068 53.3168 85.07 53.4259V49.3396C85.6473 49.1225 86.1915 48.8371 86.6927 48.493C87.2927 49.0194 87.6598 49.7897 87.6598 50.6162ZM32.4096 53.4259C30.9689 53.3162 29.8197 52.0647 29.8197 50.6162C29.8197 49.7897 30.1869 49.0194 30.7868 48.4928C31.2878 48.8368 31.8319 49.1222 32.4096 49.3393V53.4259ZM31.2936 42.2373C31.2936 40.1578 32.9834 38.4658 35.0616 38.4612C35.0855 38.4612 60.3326 38.4607 60.359 38.4607C61.4107 38.4607 62.2633 37.6081 62.2633 36.5564C62.2633 35.5047 61.4107 34.6521 60.359 34.6521H36.9748V26.5154C36.9748 19.387 41.5456 13.165 48.1251 10.934V22.3547C48.1251 23.4063 48.9777 24.259 50.0294 24.259C51.0811 24.259 51.9337 23.4063 51.9337 22.3547V7.20637C51.9337 5.33279 53.4579 3.80859 55.3314 3.80859H62.1483C64.0219 3.80859 65.5461 5.33279 65.5461 7.20637V22.3549C65.5461 23.4066 66.3987 24.2592 67.4504 24.2592C68.5021 24.2592 69.3547 23.4066 69.3547 22.3549V10.9342C75.9342 13.1653 80.505 19.3873 80.505 26.5157V34.6524H69.2463C68.1946 34.6524 67.342 35.505 67.342 36.5567C67.342 37.6083 68.1946 38.461 69.2463 38.461C69.2635 38.461 82.3935 38.4617 82.4093 38.4617C84.4905 38.4617 86.1861 40.1548 86.1861 42.2373C86.1861 44.3196 84.4921 46.0137 82.4095 46.0137H35.0702C32.9879 46.0137 31.2936 44.3196 31.2936 42.2373ZM36.2181 55.1814V49.8222H81.2611V55.1814C81.2611 67.5997 71.1579 77.7029 58.7396 77.7029C46.3213 77.7029 36.2181 67.5997 36.2181 55.1814ZM49.451 79.819C52.3409 80.9123 55.4716 81.5115 58.7396 81.5115C62.0077 81.5115 65.1383 80.9123 68.0283 79.819C68.609 82.112 70.3454 83.9691 72.6715 84.6848C68.7745 87.9001 63.8396 89.7015 58.7394 89.7015C53.6392 89.7015 48.7042 87.9001 44.8073 84.6848C47.1191 83.9462 48.8754 82.1212 49.451 79.819ZM58.7053 110.037C56.1716 107.711 53.8626 105.136 51.8321 102.37C51.2095 101.522 50.0179 101.34 49.1702 101.962C48.3224 102.584 48.1395 103.776 48.7619 104.624C51.1252 107.844 53.8418 110.82 56.8353 113.477V118.451H32.8795V106.731C32.8795 103.044 31.5247 99.5018 29.0641 96.7555L24.4006 91.5517L39.881 86.3426C40.887 89.9455 42.2438 93.4479 43.9346 96.7771C44.4163 97.7255 45.5733 98.0807 46.4947 97.6127C47.4324 97.1367 47.8067 95.9903 47.3303 95.0526C46.4066 93.2336 45.5893 91.3593 44.8814 89.4433C48.984 92.0697 53.7958 93.5101 58.7396 93.5101C63.6002 93.5101 68.3322 92.1164 72.3889 89.5736C71.081 92.8913 69.47 96.0827 67.5705 99.1121C65.0723 103.097 62.093 106.768 58.7053 110.037ZM88.4149 96.7545C85.9551 99.5 84.6002 103.043 84.6002 106.732V118.451H60.6442V113.446C64.5465 109.795 67.963 105.655 70.7974 101.135C73.6942 96.5154 75.9603 91.5421 77.5513 86.3266L93.0784 91.5512L88.4149 96.7545ZM98.5397 89.2176C98.5397 87.1259 99.2016 85.1025 100.381 83.442V86.6912C100.381 88.8486 102.117 90.6039 104.253 90.6039H109.501C111.636 90.6039 113.373 88.8486 113.373 86.6912V83.4206C114.562 85.0751 115.214 87.0837 115.214 89.2176C115.214 92.525 113.602 95.5873 110.898 97.4134C110.063 97.9814 109.564 98.9221 109.564 99.9299V105.807H104.189V99.9299C104.189 98.9221 103.691 97.9814 102.85 97.4096C100.151 95.5873 98.5397 92.525 98.5397 89.2176ZM115.165 121.127C115.165 123.919 112.893 126.191 110.101 126.191H99.6251C99.0538 126.191 98.5887 125.727 98.5887 125.155V110.651C98.5887 110.08 99.0536 109.615 99.6251 109.615H110.101C112.893 109.615 115.165 111.887 115.165 114.679V121.127ZM63.2868 70.9754C64.1443 70.3663 64.3454 69.1775 63.7362 68.3201C63.1271 67.4629 61.9383 67.2613 61.0809 67.8707C60.7097 68.1342 59.931 68.5821 58.8849 68.6197C57.7009 68.6623 56.8178 68.1677 56.3966 67.8691C55.5384 67.2613 54.3498 67.4637 53.7417 68.3221C53.1336 69.1803 53.3365 70.3689 54.1947 70.977C54.9752 71.53 56.5794 72.4311 58.7414 72.4311C60.6355 72.4311 62.3964 71.6079 63.2868 70.9754ZM47.599 51.9665C46.5473 51.9665 45.6947 52.8191 45.6947 53.8708V57.8122C45.6947 58.8638 46.5473 59.7165 47.599 59.7165C48.6507 59.7165 49.5033 58.8638 49.5033 57.8122V53.8708C49.5033 52.8191 48.6507 51.9665 47.599 51.9665ZM69.8808 59.7167C70.9325 59.7167 71.7851 58.8641 71.7851 57.8124V53.871C71.7851 52.8194 70.9325 51.9667 69.8808 51.9667C68.8291 51.9667 67.9765 52.8194 67.9765 53.871V57.8124C67.9765 58.8641 68.8291 59.7167 69.8808 59.7167Z" fill="#F7941D"/>
</g>
<defs>
<clipPath id="clip0_748_252">
<rect width="130" height="130" fill="white"/>
</clipPath>
</defs>
</svg>
