<svg width="130" height="130" viewBox="0 0 130 130" fill="none" xmlns="http://www.w3.org/2000/svg">
<path d="M123.906 79.2188H111.719V73.125C111.719 69.7654 108.985 67.0313 105.625 67.0313H85.3125C83.5616 67.0313 81.9914 67.7849 80.8783 68.9711L58.9062 65.3108V60.2205C64.9675 56.7024 69.0625 50.1557 69.0625 42.6563H71.0938C74.4534 42.6563 77.1875 39.9222 77.1875 36.5625C77.1875 33.2029 74.4534 30.4688 71.0938 30.4688H70.1188L71.2319 27.8871C73.32 23.0507 72.9463 17.4647 70.2366 12.9472C68.5181 10.0832 66.0055 7.83864 62.9667 6.45739L57.2975 3.87567C50.6045 0.828792 42.4003 1.72051 36.5158 6.13035L33.3125 8.53129L33.3166 8.53739C30.1478 9.3641 27.3508 11.4035 25.6323 14.2675C23.3959 17.9969 23.2213 22.5449 25.1652 26.4347L27.1822 30.4688H26.4062C23.0466 30.4688 20.3125 33.2029 20.3125 36.5625C20.3125 39.9222 23.0466 42.6563 26.4062 42.6563H28.4375C28.4375 50.1557 32.5325 56.7024 38.5938 60.2205V65.3108L13.912 69.4241C7.02813 70.5718 2.03125 76.4685 2.03125 83.4499V125.938C2.03125 127.061 2.94125 127.969 4.0625 127.969H67.0312H69.0625H123.906C126.147 127.969 127.969 126.147 127.969 123.906V83.2813C127.969 81.0408 126.147 79.2188 123.906 79.2188ZM107.656 73.125V79.2188H94.7944C93.7056 75.7433 91.3291 72.8549 88.2152 71.0938H105.625C106.744 71.0938 107.656 72.0038 107.656 73.125ZM83.2812 73.5211C86.4805 74.1772 89.1191 76.3263 90.4516 79.2188H83.2812V73.5211ZM73.125 36.5625C73.125 37.6818 72.213 38.5938 71.0938 38.5938H69.0625V34.5313H71.0938C72.213 34.5313 73.125 35.4433 73.125 36.5625ZM29.1159 16.3577C30.6597 13.7861 33.4831 12.1875 36.4812 12.1875C39.6662 12.1875 42.6217 13.7699 44.3909 16.4186L45.0287 17.3754L48.4088 15.1227L47.7709 14.166C45.9387 11.4197 43.2067 9.49004 40.1091 8.63285C44.7078 5.78098 50.6655 5.31785 55.6136 7.57051L61.2828 10.1522C63.568 11.1922 65.4591 12.8802 66.753 15.0354C68.7923 18.4336 69.0727 22.6363 67.5025 26.2763L67.3664 26.5932L64.7867 21.4338C64.5166 20.8955 64.023 20.5035 63.4359 20.3654C62.8509 20.2252 62.2334 20.3572 61.75 20.7168L58.5 23.1543C55.705 25.2525 52.2417 26.4063 48.75 26.4063C45.2583 26.4063 41.795 25.2525 39 23.1563L35.75 20.7188C35.2666 20.3552 34.647 20.2252 34.0641 20.3674C33.477 20.5055 32.9834 20.8975 32.7133 21.4358L29.9609 26.9425L28.7991 24.6188C27.4788 21.9782 27.5966 18.8886 29.1159 16.3577ZM26.4062 38.5938C25.287 38.5938 24.375 37.6818 24.375 36.5625C24.375 35.4433 25.287 34.5313 26.4062 34.5313H28.4375V38.5938H26.4062ZM32.5 42.6563V30.9482L35.2584 25.4293L36.5625 26.4063C40.0563 29.0266 44.3848 30.4688 48.75 30.4688C53.1152 30.4688 57.4437 29.0266 60.9375 26.4063L62.2416 25.4293L65 30.9482V42.6563C65 51.6161 57.7098 58.9063 48.75 58.9063C39.7902 58.9063 32.5 51.6161 32.5 42.6563ZM48.75 62.9688C50.8727 62.9688 52.9181 62.6397 54.8438 62.0324V66.1904L48.75 72.2841L42.6562 66.1904V62.0324C44.5819 62.6397 46.6273 62.9688 48.75 62.9688ZM48.0939 85.3125H49.4061L52.7211 93.6L48.75 110.811L44.7789 93.6L48.0939 85.3125ZM52.6012 76.8889L49.6945 81.25H47.8055L44.8967 76.8889L45.5752 74.8557L47.3139 76.5944C47.71 76.9885 48.23 77.1875 48.75 77.1875C49.27 77.1875 49.79 76.9885 50.1861 76.5924L51.9248 74.8536L52.6012 76.8889ZM26.4062 123.906V89.375H22.3438V123.906H6.09375V83.4499C6.09375 78.4652 9.66266 74.2504 14.5803 73.4297L39.9283 69.2068L42.3638 71.6422L40.7286 76.5457C40.5295 77.1408 40.6169 77.7929 40.9662 78.3149L44.4356 83.5189L40.7692 92.684C40.6148 93.0679 40.5844 93.4903 40.6758 93.8946L46.7695 120.301C46.9828 121.223 47.8034 121.875 48.75 121.875C49.6966 121.875 50.5172 121.223 50.7305 120.301L56.8242 93.8946C56.9156 93.4924 56.8852 93.0699 56.7308 92.684L53.0644 83.5189L56.5338 78.3149C56.8811 77.7929 56.9684 77.1408 56.7714 76.5457L55.1362 71.6422L57.5717 69.2068L79.2492 72.8183C79.2452 72.9219 79.2188 73.0194 79.2188 73.125V79.2188H67.0312C64.7908 79.2188 62.9688 81.0408 62.9688 83.2813V123.906H26.4062ZM69.0625 123.906H67.0312V119.844H123.908V123.906H69.0625ZM123.908 115.781H67.0312V99.3058C69.615 101.948 73.2103 103.594 77.1875 103.594H89.375V105.625C89.375 108.985 92.1091 111.719 95.4688 111.719C98.8284 111.719 101.562 108.985 101.562 105.625V103.594H113.75C117.727 103.594 121.325 101.946 123.908 99.3058V115.781ZM93.4375 105.625V95.4688H97.5V105.625C97.5 106.746 96.588 107.656 95.4688 107.656C94.3495 107.656 93.4375 106.746 93.4375 105.625ZM123.906 89.375C123.906 94.9752 119.35 99.5313 113.75 99.5313H101.562V93.4375C101.562 92.3143 100.652 91.4063 99.5312 91.4063H91.4062C90.285 91.4063 89.375 92.3143 89.375 93.4375V99.5313H77.1875C71.5873 99.5313 67.0312 94.9752 67.0312 89.375V83.2813H123.906V89.375Z" fill="#F7941D"/>
</svg>
